<?xml version="1.0" standalone="no"?>
<!DOCTYPE svg PUBLIC "-//W3C//DTD SVG 1.1//EN" "http://www.w3.org/Graphics/SVG/1.1/DTD/svg11.dtd" >
<svg xmlns="http://www.w3.org/2000/svg" xmlns:xlink="http://www.w3.org/1999/xlink" version="1.1">
<metadata></metadata>
<defs>
<font id="pt_script_barguzinregular" horiz-adv-x="1034" >
<font-face units-per-em="2048" ascent="1638" descent="-410" />
<missing-glyph horiz-adv-x="493" />
<glyph horiz-adv-x="0" />
<glyph horiz-adv-x="493" />
<glyph unicode=" "  horiz-adv-x="493" />
<glyph unicode="&#x09;" horiz-adv-x="493" />
<glyph unicode="&#xa0;" horiz-adv-x="493" />
<glyph unicode="!" horiz-adv-x="671" d="M172 106q0 -35 27.5 -62.5t62.5 -27.5q39 0 73 19.5t34 50.5q0 35 -33 60.5t-70 25.5q-33 0 -63.5 -20.5t-30.5 -45.5zM332 508q2 -20 12 -34.5t33 -14.5q51 0 135 127q16 23 49 83t86 158q68 123 115 250q49 131 49 176q0 31 -20.5 46.5t-40.5 11.5q-37 -2 -93 -144 q-88 -219 -104 -249q-8 -16 -44 -78t-99 -170q-78 -133 -78 -162z" />
<glyph unicode="&#x22;" horiz-adv-x="671" d="M494 1063q0 -27 9 -45.5t34 -18.5q47 0 114 220q60 194 60 223q0 27 -19.5 44t-46.5 17q-61 0 -100 -129q-51 -156 -51 -289v-22zM719 1051q0 -27 9 -45.5t34 -18.5q47 0 115 219q59 195 59 224q0 27 -19.5 44t-46.5 17q-61 0 -100 -129q-51 -156 -51 -289v-22z" />
<glyph unicode="#" horiz-adv-x="1161" d="M143 565q0 -23 27 -49q41 -41 72 -41q29 0 39 19q10 23 25.5 36t30.5 19t29.5 9t22.5 7q-14 -51 -31.5 -112.5t-42.5 -120.5q-41 -18 -59 -29q-31 -23 -31 -45q0 -25 19 -57q8 -12 14 -37q-4 -16 -12 -44t-21 -67q-41 -127 -41 -137q4 -12 7.5 -21.5t5.5 -13.5 q16 -35 45 -35q25 6 34 13q39 23 48 61q25 98 45 174t41 119q76 39 139 66q49 20 123 49q-10 -51 -37 -121q-25 -72 -25 -96q0 -33 4 -49.5t33 -16.5q70 0 123 139q16 57 34.5 112.5t35.5 113.5q41 16 79.5 32.5t79.5 32.5q63 25 115 25q55 0 79 21.5t24 60.5q0 25 -10.5 37 t-51.5 12q-92 0 -270 -66q14 29 25.5 63t21.5 72q6 25 10 42.5t8 27.5q35 12 64.5 22.5t54.5 18.5q53 16 97 27.5t79 17.5q74 15 74 62q0 66 -41 65q-43 0 -112.5 -14.5t-164.5 -38.5q33 106 48.5 162.5t17.5 60.5q14 51 14 80q0 43 -7 62.5t-34 19.5q-66 0 -118 -170 q-18 -68 -37 -135.5t-35 -132.5l-211 -82l104 276q39 104 39 150q0 57 -59 57q-39 0 -131 -225q-8 -16 -38 -96t-83 -228q-45 -16 -88 -30.5t-86 -30.5q-154 -55 -154 -103zM477 393q12 39 30.5 90.5t51.5 139.5l254 110q-12 -37 -31.5 -100.5t-33.5 -124.5 q-72 -29 -123 -49q-27 -10 -64 -26.5t-84 -39.5z" />
<glyph unicode="$" horiz-adv-x="835" d="M57 330q0 -12 14.5 -37t39 -53.5t58.5 -62.5t71 -64q-33 -74 -57.5 -128.5t-39.5 -93.5q-4 -10 -7 -19t-3 -22q0 -16 11.5 -27t25.5 -11q18 0 35.5 12t27.5 31q14 23 28.5 49t31.5 61q2 4 11 23.5t28 54.5q63 -41 107 -56.5t87 -15.5q70 0 109 138q31 111 41 277.5 t10 365.5l225 395q43 -55 43 -82q0 -29 -39 -74q-37 -47 -36 -59q0 -23 41 -23q55 0 110 74q49 63 49 119q0 43 -24.5 86t-69.5 90q61 111 62 131q0 20 -21.5 36.5t-36.5 16.5q-37 0 -94 -104q-61 45 -117.5 72.5t-85.5 27.5q-47 0 -80.5 -40t-50.5 -95q-10 -45 -16 -100.5 t-6 -124.5q0 -25 1 -68t3 -106.5t3 -112.5t1 -88l-60 -113l-155 -307q-53 33 -129 62q-80 29 -103 28q-43 0 -43 -63zM379 141l168 348q0 -152 -25 -268q-23 -115 -55 -115q-27 0 -59 17q-8 4 -15.5 9zM674 1169q0 59 8 93t39 34q25 0 61.5 -22t65.5 -51q-8 -14 -17.5 -28.5 t-21.5 -31.5q-61 -78 -80 -110l-49 -84z" />
<glyph unicode="%" horiz-adv-x="1359" d="M143 594q0 -27 12.5 -51.5t33 -43t46 -29.5t52.5 -11q109 0 288 186q45 45 103.5 114.5t132.5 166.5q31 16 62.5 33.5t66.5 37.5q27 16 50.5 31.5t45.5 32.5q-6 -10 -30.5 -48t-67.5 -104q-49 -76 -91 -140t-77 -120q-102 -160 -172 -289q-51 -92 -104.5 -193 t-110.5 -214q-113 -223 -113 -246q0 -49 39 -76q27 -18 53 -18q43 0 68 13.5t25 47.5v93q6 51 67 190q51 113 123 240q47 86 110.5 191.5t147.5 234.5q117 180 177.5 276t68.5 107q108 182 108 231q0 35 -19 56.5t-46 21.5q-14 0 -188.5 -125t-200.5 -125q-53 39 -101.5 77 t-87.5 38q-141 0 -317 -262q-154 -231 -154 -324zM295 651q-4 23 39 101q10 20 30.5 55t49.5 82q35 -39 66.5 -58.5t76.5 -19.5q-29 -41 -62.5 -73.5t-68.5 -61.5q-70 -51 -102 -49q-27 4 -29 24zM811 172q0 -23 21.5 -36t52.5 -13q66 0 178 63q57 33 104 71t86 79 q35 39 58.5 64.5t36.5 39.5q77 96 77 168q0 49 -33.5 81t-88.5 32q-172 0 -340 -215q-152 -195 -152 -334zM987 344q10 55 119 145q111 94 151 91q33 -7 33 -23q0 -33 -114 -137q-113 -104 -164 -101q-6 0 -16.5 8.5t-8.5 16.5z" />
<glyph unicode="&#x26;" horiz-adv-x="1015" d="M131 303q0 -94 59 -172q61 -74 134 -74q72 0 221 109q102 78 243 213q104 98 142 145q18 23 49 55.5t72 75.5q35 39 60.5 67t41.5 48q51 29 93 61t44 50q2 23 -10 37t-29 14q-23 0 -170 -68q-63 -29 -126.5 -59.5t-127.5 -59.5q-49 -23 -98 -41t-98 -34 q-27 -8 -58.5 -16.5t-70.5 -18.5q29 29 65.5 63.5t83.5 73.5q135 117 140 158q0 12 -17 33q-25 29 -39 28q-35 -23 -71.5 -47t-71.5 -47q-66 -41 -119 -41q-45 0 -70.5 15.5t-25.5 54.5q0 29 147 131q150 102 197 102q14 0 34.5 -16.5t35.5 -16.5q31 0 52 26t21 52 q0 86 -88 86q-123 0 -338 -160q-201 -152 -200 -204q0 -88 45 -138.5t143 -50.5q-12 -10 -52 -44t-108 -93q-123 -133 -135 -276v-21zM274 322v14q0 10 2 24q0 45 41 103q20 25 41 49.5t43 48.5q10 -63 27.5 -82.5t71.5 -19.5q23 0 164 61.5t227 110.5q-117 -113 -201 -191 t-141 -125q-143 -115 -209 -114q-66 0 -66 121z" />
<glyph unicode="'" horiz-adv-x="606" d="M494 1063q0 -27 9 -45.5t34 -18.5q47 0 114 220q60 194 60 223q0 27 -19.5 44t-46.5 17q-61 0 -100 -129q-51 -156 -51 -289v-22z" />
<glyph unicode="(" horiz-adv-x="622" d="M147 373q0 -154 72 -267q90 -133 166 -133q53 0 53 52q-29 35 -56.5 70.5t-55.5 70.5q-51 82 -52 203q0 68 34 170t100 227q27 53 63.5 109.5t83.5 113.5q82 100 154 158q27 20 51 39.5t51 40.5q53 40 53 67q0 31 -6 43q-12 23 -51 23q-84 0 -238 -176q-41 -47 -92 -115 t-112 -156q-147 -213 -199 -432q-18 -78 -19 -108z" />
<glyph unicode=")" horiz-adv-x="563" d="M8 33q-2 -14 10.5 -23.5t26.5 -11.5q29 0 117 78q76 74 211 235q57 68 105 144.5t89 162.5q84 178 84 297q0 211 -67 340q-51 100 -109 101q-35 0 -60.5 -16.5t-25.5 -57.5q0 -45 45 -84q94 -82 94 -264q0 -129 -53 -260q-20 -51 -52 -103.5t-73 -109.5q-20 -29 -55 -72 t-86 -102l-123 -135q-78 -90 -78 -119z" />
<glyph unicode="*" horiz-adv-x="1097" d="M330 987q0 -18 5 -25.5t32 -7.5q31 0 57 23q35 33 43 35q18 8 49 17t68 17.5t76.5 16.5t76.5 14l117 25q-57 -45 -98 -78t-70 -55q-166 -139 -164 -162q0 -18 15.5 -33.5t33.5 -15.5q29 0 86 45q37 29 150 131q-14 -35 -28.5 -69t-28.5 -68q-29 -72 -31 -88 q-2 -20 11 -29.5t34 -11.5q47 0 119 147q23 51 45 109.5t45 124.5q16 -14 34.5 -26.5t36.5 -25.5q72 -47 134 -47q61 0 61 41q0 51 -51 84q-45 31 -68.5 47.5t-27.5 20.5q31 10 55 16t43 10q63 14 97 21.5t40 9.5q43 14 76 36.5t33 49.5q0 14 -17.5 27.5t-36.5 13.5 q-31 0 -110 -22q-37 -10 -64.5 -16.5t-44.5 -10.5l185 166q106 98 106 129t-13.5 46t-49.5 15q-37 0 -119 -80.5t-201 -234.5q6 31 16.5 80t10.5 92q0 18 -14.5 35.5t-41.5 17.5q-53 0 -92 -129q-10 -35 -22.5 -81t-28.5 -105q-33 18 -63.5 36.5t-63.5 37.5q-86 49 -110 49 q-29 0 -51.5 -20.5t-22.5 -45.5q0 -14 30 -39q39 -31 52 -47q-23 -8 -75 -23.5t-132 -37.5q-133 -53 -133 -152z" />
<glyph unicode="+" horiz-adv-x="1101" d="M238 524q0 -49 49 -57q12 -2 131 12q59 8 106 14.5t82 10.5q-35 -121 -67 -252q-35 -133 -35 -146q0 -43 10 -58t31 -15q53 0 112 153q29 82 55.5 164t55.5 166q66 6 133.5 12.5t132.5 14.5q158 23 158 80q0 45 -51 45l-213 -9q-23 0 -72 -6q-23 -2 -38 -3t-19 1 q14 45 24.5 80t16.5 57q41 147 41 170q0 31 -5.5 46.5t-31.5 15.5q-37 0 -82 -86t-107 -295l-297 -33q-70 -6 -95 -26.5t-25 -55.5z" />
<glyph unicode="," horiz-adv-x="774" d="M66 -375q-6 -8 10 -31q8 -10 19 -15t20 -5q14 0 43 23q106 98 215 276q110 178 110 274v35q0 59 -12 90q-18 43 -65 43q-45 0 -70 -17t-25 -60q0 -18 13 -43q20 -39 20 -52q0 -145 -147 -338q-59 -82 -93 -126t-38 -54z" />
<glyph unicode="-" d="M227 442q0 -37 26 -51t105 -14q205 0 363 31q158 34 158 71q0 57 -131 58q-23 0 -72 -5.5t-127 -15.5q-31 -4 -55.5 -6t-40.5 -2q-106 0 -166 -17.5t-60 -48.5z" />
<glyph unicode="." horiz-adv-x="653" d="M193 82q0 -82 81 -82q39 0 67 25.5t28 68.5q0 82 -99 82q-35 0 -56 -29.5t-21 -64.5z" />
<glyph unicode="/" horiz-adv-x="829" d="M131 -145q0 -45 25 -45q61 0 90 65q18 39 55 113.5t94 187.5q51 104 100.5 201.5t96.5 189.5q59 117 182 334q41 76 84 150.5t86 150.5q74 135 74 158q0 53 -47 53q-41 0 -86 -82q-16 -29 -55 -98.5t-101 -179.5q-37 -61 -104 -185q-35 -61 -69 -125.5t-69 -132.5 q-61 -121 -119.5 -239.5t-115.5 -241.5q-121 -258 -121 -274z" />
<glyph unicode="0" horiz-adv-x="638" d="M49 217q0 -106 40 -161.5t104 -55.5q172 0 423 362q252 365 252 592q0 113 -55 181q-66 78 -190 77q-106 0 -252 -200q-131 -182 -226 -418q-96 -242 -96 -377zM164 217q0 90 82 305q41 111 88 205t98 172q119 186 211 186q107 0 107 -176q0 -76 -105 -272 q-98 -190 -219 -344q-133 -166 -197 -166q-66 0 -65 90z" />
<glyph unicode="1" horiz-adv-x="647" d="M131 49q2 -18 15.5 -31.5t29.5 -13.5q41 0 133 191l78 176t80 178q82 178 156 366q73 187 73 224q0 53 -53 53q-29 0 -104 -180q-80 -190 -122 -289.5t-46 -110.5q-51 -109 -88 -188.5t-60 -132.5q-92 -209 -92 -242z" />
<glyph unicode="2" horiz-adv-x="1042" d="M53 12q0 -23 7.5 -37t43.5 -14q20 0 170 39q78 20 137.5 33.5t102.5 17.5q86 10 131 12.5t92 2.5q33 0 79 -2.5t65 -2.5q35 0 56 21t21 41q0 25 -33.5 45t-64.5 20q-70 0 -140.5 -2t-144.5 -6q-143 -6 -231 -28q29 35 78 99t115 159q80 113 141 207t106 171 q121 213 121 293q0 111 -119 111q-182 0 -325 -88q-145 -86 -146 -207q0 -47 47 -94q45 -45 80 -45q20 0 39 15t19 46q0 20 -21 41q-37 39 -37 45q6 59 121 119q100 49 166 49q37 0 37 -37q0 -68 -168 -329q-76 -119 -144.5 -218.5t-134.5 -177.5q-16 -20 -69 -76.5 t-146 -154.5q-51 -51 -51 -68z" />
<glyph unicode="3" horiz-adv-x="899" d="M6 94q0 -43 36 -71.5t75 -28.5q162 0 430 184q276 199 276 350q0 61 -59 92t-59 48q53 53 104 108t104 111q97 121 97 227q0 55 -32 87t-95 32q-41 0 -154 -64q-23 -12 -62.5 -36.5t-99.5 -59.5q-45 -29 -80.5 -51.5t-62.5 -42.5q-72 -53 -72 -78q0 -29 21.5 -41 t52.5 -12q37 0 72 31q59 53 63 55q45 29 89 58.5t91 60.5q92 61 115 61q37 0 37 -37q0 -86 -184 -254q-182 -166 -183 -192q0 -33 49 -58q102 -53 103 -61q0 -100 -221 -256q-195 -137 -252 -137q-16 0 -19.5 5t-1.5 23q0 12 53.5 72t53.5 72q0 45 -45 45q-68 0 -154 -92 t-86 -150z" />
<glyph unicode="4" horiz-adv-x="786" d="M45 467q0 -25 18.5 -43t42.5 -18q25 0 166 43q72 23 132.5 43t111.5 40q-10 -29 -30.5 -84t-49.5 -133q-92 -246 -92 -270q0 -35 7 -47t34 -12q25 0 43 9t31 38l205 516q10 8 23 15t30 18q33 18 40 37.5t7 33.5q0 45 -39 52q37 98 98 233q103 227 103 229 q0 29 -12.5 46.5t-32.5 11.5q-39 -12 -58.5 -30.5t-36.5 -55.5q-68 -53 -172 -135q-70 -55 -125 -100.5t-96 -80.5q-23 -20 -65.5 -54t-102.5 -85q-180 -156 -180 -217zM279 573q47 41 151 125t254 203q-20 -37 -35.5 -67.5t-25.5 -53.5q-16 -35 -28.5 -59.5t-21.5 -40.5z " />
<glyph unicode="5" horiz-adv-x="827" d="M78 176q0 -72 49 -117q41 -39 102 -39q178 0 381 232q205 231 205 407q0 86 -27 127q-35 53 -108 54q-80 0 -152 -27q-55 -27 -114 -51q16 16 31.5 34.5t31.5 34.5q68 76 68 107q0 27 -14.5 36t-34.5 9q-14 0 -60 -43q-55 -53 -147 -154q-10 -14 -35 -39.5t-59 -64.5 q-63 -70 -64 -100q0 -18 23.5 -42t42.5 -24q59 37 120.5 74t122.5 74q115 66 195 65q57 0 57 -74q0 -117 -166 -315q-166 -201 -280 -201q-41 0 -41 41q0 27 51 109q23 35 23 63q0 29 -16.5 41.5t-41.5 12.5q-59 0 -104 -101q-39 -80 -39 -129zM549 1141q0 -18 4 -40 t10 -41.5t15.5 -31.5t19.5 -12q29 0 51 43q20 43 35 43q242 0 346.5 27.5t104.5 78.5q0 41 -54 41q-8 0 -32.5 -3t-69.5 -7t-88 -7t-88 -3q-76 0 -125 -4t-78 -14.5t-40 -28t-11 -41.5z" />
<glyph unicode="6" horiz-adv-x="823" d="M-18 270q0 -61 41 -61q2 0 22 4q25 -102 74 -139t147 -37q41 0 75 6t67.5 18.5t69.5 31t79 42.5q66 39 118 81t93 87q92 100 92 189q0 53 -22 88q-31 43 -105 43q-131 0 -282 -58q-121 -47 -222 -110q20 41 42 80.5t46 78.5q43 68 93 123q160 184 295 285 q164 123 163 129q0 39 -16 58.5t-37 19.5q-154 0 -534 -459q-59 -72 -121 -176q-82 -139 -115 -242q-14 -10 -38.5 -31.5t-24.5 -50.5zM188 283q66 59 254 141q190 86 234 80q18 -2 29.5 -20.5t11.5 -41.5q0 -55 -137 -159q-156 -119 -289 -119q-55 0 -79 30t-24 89z" />
<glyph unicode="7" horiz-adv-x="610" d="M29 -2q0 -18 19.5 -33.5t33.5 -15.5q29 0 84 69q31 43 129 203q51 80 95 149.5t85 129.5q43 61 89 126.5t90 129t82 121t67 104.5q65 108 65 145q0 98 -90 99q-45 0 -131 -23q-23 -6 -58.5 -15t-84.5 -24q-41 -10 -62.5 -14t-25.5 -6q-66 -12 -113 -13q-66 0 -65 -73 q0 -43 30 -56q14 -6 56 -6q12 0 92 21l55 11t82 17q18 2 63 17q43 12 54 12l10 -8q0 -35 -47 -113q-8 -12 -29.5 -46t-58.5 -91q-53 -78 -108.5 -155.5t-109 -155.5t-91 -135.5t-60.5 -94.5q-147 -238 -147 -276z" />
<glyph unicode="8" horiz-adv-x="837" d="M4 45q0 -74 55 -113q45 -33 125 -32q88 0 178 129q68 104 132 288q23 70 42 137.5t33 135.5q59 51 131 94q203 125 246 160l117 67q59 37 59 72q0 20 -16 43t-33 23q-27 0 -45 -9l-45 -20q-41 102 -121 188q-92 98 -182 99q-113 0 -170 -260q-16 -104 -31.5 -205 t-32.5 -203q-199 -119 -315 -270q-127 -164 -127 -324zM135 82q0 90 105 223q89 113 161 154q-4 -35 -19 -81t-38 -104q-16 -41 -33.5 -77.5t-36.5 -69.5q-8 -12 -15 -24.5t-17 -24.5q-31 -41 -74 -41q-33 0 -33 45zM600 778q14 117 25.5 189.5t19.5 103.5q25 96 55 96 q43 0 109 -73q63 -73 63 -136q-53 -37 -92 -64.5t-65 -43.5q-25 -16 -53.5 -33.5t-61.5 -38.5z" />
<glyph unicode="9" horiz-adv-x="776" d="M12 57q0 -25 16.5 -41t41.5 -16q154 0 323 143q129 109 295 324q115 150 197 352q73 180 73 262q0 72 -35.5 106t-86.5 34q-47 0 -123 -37q-49 -23 -140 -78q-123 -78 -237 -197q-115 -121 -115 -172q0 -57 35 -92t113 -35q96 0 211 60q33 16 69.5 41.5t79.5 58.5 q-29 -51 -54.5 -93t-48 -77t-49 -70.5t-57.5 -74.5q-123 -156 -274 -267q-23 -16 -107 -51q-127 -53 -127 -80zM377 766q0 41 162 172q162 135 215 135q43 0 43 -20v-15q0 -8 -2 -22q0 -82 -166 -189q-152 -98 -203 -98q-25 0 -37 6t-12 31z" />
<glyph unicode=":" horiz-adv-x="671" d="M158 127q0 -31 24 -68q35 -47 54 -47q39 0 62.5 28t23.5 87q0 43 -21.5 60.5t-60.5 17.5q-25 0 -53.5 -24.5t-28.5 -53.5zM387 653q0 -45 22.5 -83t59.5 -38q31 0 52.5 32t21.5 71q0 43 -12.5 67.5t-49.5 30.5q-39 6 -66.5 -19.5t-27.5 -60.5z" />
<glyph unicode=";" horiz-adv-x="704" d="M25 -281q0 -41 32 -41q47 0 131 86q63 70 123 154q86 123 109 191q14 37 14 96q0 74 -61 74q-47 0 -74 -99q-39 -137 -70 -180q-47 -72 -172 -221q-33 -39 -32 -60zM332 645q0 -96 94 -96q35 0 60.5 21.5t25.5 60.5q0 29 -28.5 55.5t-65.5 26.5t-61.5 -15.5t-24.5 -52.5z " />
<glyph unicode="&#x3c;" horiz-adv-x="917" d="M205 389q0 -70 84 -123q25 -16 65.5 -38.5t100.5 -55.5q29 -18 57.5 -37.5t56.5 -42.5q92 -68 119 -67q37 0 61.5 9t24.5 40q0 33 -59 80q-41 27 -76 51l-270 176q27 14 65.5 36.5t91.5 53.5q53 33 87 54.5t51 31.5q188 121 188 164q0 49 -66 49q-39 0 -157 -82 q-53 -37 -83 -57.5t-38 -24.5q-49 -27 -98.5 -53.5t-96.5 -52.5q-108 -66 -108 -111z" />
<glyph unicode="=" horiz-adv-x="1114" d="M207 500q0 -66 61 -66l127 35q47 14 109.5 29.5t140.5 31.5q119 20 233.5 43t114.5 72q0 27 -20.5 41t-40.5 14l-377 -65q-348 -68 -348 -135zM260 266q0 -37 24.5 -55t59.5 -18q16 0 164 24q178 29 269 44t102 18q66 10 77 16q29 17 29 74q0 37 -63 37q-27 0 -240 -39 t-279 -39q-59 0 -101 -14.5t-42 -47.5z" />
<glyph unicode="&#x3e;" horiz-adv-x="843" d="M156 66q0 -49 69 -50q12 0 66 47q92 86 159.5 144.5t108.5 91.5q47 39 98.5 77t104.5 79q74 57 74 118q0 29 -52 72q-10 10 -33.5 26.5t-62.5 41.5q-29 23 -57.5 44t-57.5 44q-70 51 -106 51q-59 0 -82 -66q-6 -23 55 -69q84 -57 136.5 -96t87.5 -72l-230 -197 q-72 -59 -115 -96t-59 -51q-92 -84 -102 -119q-2 -4 -2 -20z" />
<glyph unicode="?" horiz-adv-x="753" d="M233 106q0 -82 60 -81q55 0 88 18.5t33 71.5q0 37 -22.5 63.5t-63.5 26.5q-33 0 -64 -29t-31 -70zM328 983q0 -33 17 -43t56 -10q35 0 72 30.5t43 65.5t105 115q96 82 133 88q25 4 28.5 -5.5t3.5 -35.5q0 -100 -163 -283q-29 -33 -58.5 -65.5t-64.5 -67.5 q-119 -121 -119 -145q0 -39 20 -58q12 -12 33 -12q37 0 129 96q55 57 101.5 113.5t85.5 110.5q66 92 108.5 168.5t59.5 140.5q8 24 8 59q0 55 -30 93t-81 38q-37 0 -121 -51q-33 -20 -58.5 -37.5t-45.5 -34.5q-63 -47 -109.5 -87t-74.5 -68q-78 -78 -78 -115z" />
<glyph unicode="@" horiz-adv-x="1255" d="M208 293.5q-15 109.5 5 222.5t68 207q59 121 150 216t196.5 158.5t220.5 92.5t221.5 18.5t198.5 -63.5t153 -154q39 -63 41 -138t-18 -163q-18 -86 -56 -152.5t-106 -138.5q-2 -2 -13.5 -14t-29.5 -28.5t-31 -24.5q-8 -4 -27.5 -14.5t-48 -24.5t-61.5 -20.5t-72 -8.5 q-68 0 -98 37q-18 31 -18 68q0 31 9 65.5t21 67.5q-90 -72 -178 -148q-115 -86 -188 -86q-35 0 -61.5 23.5t-26.5 52.5q0 37 90 152q45 57 93 109t101 102q49 43 83 71.5t55 44.5q131 111 204 111q53 0 89 -33q18 10 38.5 26.5t28.5 16.5q43 0 43 -49q0 -23 -27 -49 q-18 -23 -33.5 -39t-25.5 -31q-88 -96 -131 -168q-72 -109 -72 -182q0 -20 7.5 -33.5t21.5 -13.5q94 -6 221 127q203 276 60 485q-41 61 -111 93t-154 34t-177 -22.5t-181 -75.5t-166 -128t-131 -177q-41 -76 -63.5 -161t-20.5 -170t33 -168t98 -155q43 -47 117 -61t246 4 q174 20 285.5 46t179.5 63q14 4 32.5 -4.5t29.5 -21.5t9 -27.5t-26 -22.5q-51 -23 -117 -45.5t-148 -42.5q-158 -41 -270 -45q-106 -4 -185 4t-136 37q-111 55 -168.5 147t-72.5 201.5zM639 424q20 -20 186 121q84 72 131.5 118.5t57.5 69.5q10 20 10 41q0 14 -12 14 q-51 0 -221 -170q-168 -168 -152 -194z" />
<glyph unicode="A" horiz-adv-x="1320" d="M-37 29q0 -27 29 -43q8 -8 18 -9q29 0 64 23q4 0 100 98q98 104 178 211q41 55 89 121t106 143q12 -18 21.5 -28t18.5 -14.5t20 -5.5t30 -1q86 0 242 54q66 23 125 48t112 54q-35 -100 -70.5 -190.5t-76.5 -176.5q-59 -121 -135 -252q-39 -25 -67 -51t-28 -37 q0 -33 18.5 -57.5t43.5 -24.5q59 0 213 187q155 185 155 236q0 38 -16 67t-16 33q23 51 39 89t26 64q35 82 57.5 132.5t32.5 70.5q74 27 127.5 49.5t85.5 38.5q148 76 148 146q0 10 -14.5 17t-30.5 7q-18 0 -129 -41q-101 -37 -112 -37h-1q14 33 37 142q20 102 20 141 q0 80 -25.5 124t-72.5 44q-68 0 -186 -84q-47 -35 -101.5 -80t-113.5 -102q-47 -47 -95.5 -94.5t-95.5 -94.5q-6 12 -16 65.5t-35 53.5q-27 0 -78 -92q-59 -104 -114.5 -198.5t-108.5 -180.5q-16 -27 -58 -78t-108 -129q-35 -41 -89 -101.5t-126 -142.5q-37 -53 -37 -114z M645 680q135 150 350 362q238 236 277 236q18 0 25 -25.5t3 -52.5q-4 -33 -13 -66.5t-21 -70.5q-35 -109 -92 -232q-82 -35 -151 -62.5t-124 -43.5q-141 -45 -231 -45h-23z" />
<glyph unicode="B" horiz-adv-x="1181" d="M-68 -104q0 -66 50 -66q45 0 96 100q37 72 73.5 144.5t75.5 148.5q31 59 61.5 121t63.5 121q39 76 70 139.5t53 116.5q33 8 80 24q14 8 25.5 25.5t18.5 37t10 38t3 31.5q0 12 -5 25t-11 27.5t-9 27t1 24.5q25 82 235 213q213 133 287 133q23 0 32 -23.5t9 -52.5 q0 -106 -84 -245q-33 -53 -78 -112.5t-102 -125.5l-144 -143q-67 -67 -67 -87q0 -54 34.5 -73t108.5 -19l131 9q63 0 101.5 -26t38.5 -77q0 -74 -152 -170t-250 -96q-57 0 -75.5 13.5t-18.5 72.5q0 72 -20.5 101.5t-53.5 29.5q-45 0 -74 -59q-24 -57 -24 -113q0 -80 52 -133 t132 -53q221 0 424 153.5t203 294.5q0 43 -23.5 82t-68.5 68.5t-107.5 46t-138.5 16.5q156 141 285 355q118 199 118 299q0 84 -38 137q-46 65 -131 65h-3q-106 0 -329 -153q-96 -66 -178 -134.5t-154 -140.5q-35 -31 -55 -104q-23 -72 -43 -123q-66 -147 -185 -375 q-45 -86 -89 -168t-89 -168q-72 -154 -72 -200z" />
<glyph unicode="C" horiz-adv-x="903" d="M45 254q0 -139 55 -201q71 -71 251 -71h5q74 0 197 38q125 39 221 86q135 70 209 111q176 103 176 156q0 23 -33 22q-6 0 -22 -4q-78 -39 -158 -78t-158 -77q-287 -129 -428 -130q-86 0 -131 43.5t-45 141.5q0 152 41 274q35 98 123 250q41 72 92.5 137.5t114.5 124.5 q125 123 186 123t62 -65q0 -43 -37 -119q-37 -78 -37 -103q0 -18 16.5 -41.5t49.5 -23.5q45 0 129 141q84 143 84 195q0 33 -17.5 48t-68.5 25q-29 43 -72 60.5t-76 17.5q-119 0 -270 -133q-139 -123 -258 -313q-100 -160 -150.5 -314.5t-50.5 -320.5z" />
<glyph unicode="D" horiz-adv-x="1052" d="M-207 -14q0 -70 78 -117q63 -39 129 -39q156 0 436 170q145 92 267 197.5t225 228.5q233 278 233 516q0 225 -180 373q-134 110 -234 110h-2q-204 0 -204 -130q0 -17 11 -42.5t19 -35.5l-221 -519q-29 -66 -66.5 -153.5t-88.5 -198.5q-72 -156 -93 -213q-29 -82 -28 -147 q-29 -12 -40 -16.5t-28 -4.5q-14 0 -84 51q-31 25 -51 25q-18 0 -41 -16q-35 -25 -37 -39zM223 25l8 47q14 41 36 100t55 137q63 156 141 332l272 612q98 -20 189 -102q110 -98 110 -213q0 -190 -174 -408q-135 -168 -352 -327q-170 -125 -285 -178z" />
<glyph unicode="E" horiz-adv-x="978" d="M117 -8q61 -27 123 -27q96 0 241 37q57 16 104.5 33.5t88.5 38.5q92 35 182 67.5t182 67.5q57 25 58 65q0 35 -21.5 44.5t-60.5 9.5q-20 0 -197 -70q-53 -20 -101 -38.5t-93 -35.5q-135 -46 -231 -74q-84 -24 -116 -25q-5 0 -8 1q-33 4 -56.5 18.5t-25.5 38.5q0 14 -2 25 q0 37 35 123q23 57 66 142t104 202q57 109 115 188q23 33 45 60.5t43 50.5q12 25 15 36t3 38t-6 69q168 0 402 76q237 78 237 129q0 37 -61 37q-55 0 -267 -49q-213 -49 -229 -49h-22q-10 0 -25 2q-82 0 -109 -37q-20 -27 -20 -88q-29 -49 -59.5 -98.5t-59.5 -96.5 q-23 -39 -48.5 -83t-51.5 -95q-123 -231 -197 -406q-71 -176 -71 -228q0 -67 94 -99zM461 582q0 -29 20.5 -51.5t48.5 -22.5q90 0 261 96q57 33 98 54.5t69 33.5q29 10 60 20.5t59 20.5q60 25 60 74q0 12 -18.5 30.5t-39.5 18.5q-59 0 -231 -92t-248 -92h-18t-29 2 q-41 0 -66.5 -18.5t-25.5 -73.5z" />
<glyph unicode="F" horiz-adv-x="849" d="M37 61q0 -27 15.5 -49t33.5 -22q51 0 82 49q16 49 34.5 98t35.5 99q16 39 36.5 84t42.5 98q16 39 38 80t46 88q70 12 139.5 24.5t141.5 26.5q344 68 344 149q0 27 -16.5 32t-55.5 5q-10 0 -60 -8t-138 -24q-47 -8 -115 -21.5t-160 -30.5q23 39 43.5 78t42.5 80 q14 25 30.5 53.5t39.5 61.5q66 23 129 45t129 45q86 29 183.5 53.5t164.5 32.5q119 14 125 82q0 37 -8 45q-14 20 -68 20q-37 0 -93 -12t-130 -34.5t-161 -52.5t-183 -65q2 8 10 30t8 38q0 39 -43 39q-41 0 -114 -98q-29 -39 -64 -92.5t-73 -122.5q-20 -35 -50 -90.5 t-69 -129.5q-4 -4 -15.5 -9t-27.5 -13q-20 -8 -27 -18q-12 -25 -12 -48q0 -27 12 -59q-41 -88 -80 -174t-80 -174q-63 -145 -63 -189z" />
<glyph unicode="G" horiz-adv-x="1085" d="M29 299q0 -61 21.5 -112.5t60.5 -89.5t94 -59.5t123 -21.5q115 0 278 76q57 27 144 76q-45 -59 -86 -131t-80 -154q-76 -164 -76 -229q0 -18 8 -37.5t20.5 -35t25.5 -25t24 -9.5q39 0 98 50q70 61 70 143q0 29 -15 37q-12 4 -24.5 8t-24.5 8q16 80 88 201q25 39 55.5 84 t67.5 96q76 106 246 281q115 121 115 172q0 18 -25 35.5t-41 17.5h-25q-18 0 -55 -2h-24h-31h-41h-55h-76h-101q-27 0 -63.5 9t-44.5 9q-80 0 -137 -34q-43 -29 -43 -56q0 -25 13 -57.5t36 -32.5q31 12 58.5 22.5t76.5 10.5l348 -25q-117 -84 -192.5 -135t-110.5 -74 q-262 -159 -408 -159h-2q-74 0 -116 65q-35 53 -35 115q0 133 182 303q20 18 73.5 61t143.5 109q70 53 149 102.5t171 96.5q180 94 243 94q29 0 29 -33t-96 -104.5t-96 -79.5q0 -49 49 -49q109 0 219 125q92 104 92 141q0 53 -33 84q-39 39 -123 39q-127 0 -344 -117 q-172 -92 -325 -209q-94 -72 -155.5 -121t-94.5 -78q-111 -98 -167 -194t-56 -207z" />
<glyph unicode="H" horiz-adv-x="1112" d="M41 33q0 -33 22.5 -54.5t57.5 -21.5q45 0 62.5 12.5t17.5 50.5v33q0 25 7 57.5t25 86.5q47 131 90.5 234.5t77.5 162.5q70 -6 103 -6q18 0 39.5 1t46.5 1q63 0 172 12q106 12 160 12q-33 -59 -64 -117.5t-61 -117.5q-170 -324 -170 -359q0 -23 12 -39t45 -16 q53 0 119 135q63 137 141 271q29 51 53.5 92t40.5 76q14 25 29.5 55.5t34.5 64.5q45 14 98 37t53 58q0 39 -19.5 44t-57.5 13q23 45 39 82t26 65q41 117 41 193q0 41 -9 57.5t-52 16.5t-64 -58q-4 -6 -18 -88q-23 -96 -52.5 -164.5t-74.5 -148.5q-66 -10 -117 -17.5 t-92 -11.5q-39 -4 -83 -6t-93 -2h-66q-27 0 -53.5 4t-36.5 12q41 68 84 135.5t86 137.5q104 172 104 233q0 72 -45 72q-37 0 -106 -106q-53 -78 -141 -246q-29 -53 -65 -122t-77 -153q-33 -63 -63.5 -132.5t-63.5 -145.5q-25 -59 -50 -125t-52 -137q-41 -113 -41 -123z" />
<glyph unicode="I" horiz-adv-x="557" d="M44 34.5q15 -18.5 40 -18.5q23 0 88 121q39 74 135 277q104 217 148 301q12 23 46 84t89 164q139 256 139 270t-19.5 31.5t-29.5 17.5q-47 0 -184 -235q-33 -57 -66 -113.5t-65 -114.5q-106 -180 -228 -452q-108 -244 -108 -278q0 -36 15 -54.5z" />
<glyph unicode="J" horiz-adv-x="1079" d="M0 393q0 -115 47 -219q68 -145 203 -145q117 0 246 116q106 96 239 291q41 59 99.5 150.5t130.5 214.5q57 94 86.5 143t34 57.5t19.5 31t42 57.5q53 4 114.5 7t127.5 7q135 8 135 51q0 47 -70 59q-27 2 -51.5 3.5t-50.5 3.5q-23 0 -160 -13q-72 -6 -270 -24 q-100 -8 -175 -16.5t-126 -18.5q-182 -31 -183 -80q0 -53 70 -53q68 0 115 8t74.5 11t31.5 5l238 29q-20 -39 -39 -76t-39 -73q-53 -90 -209 -338q-143 -227 -260 -338q-88 -88 -141 -88q-61 0 -102.5 56t-41.5 136q0 133 65.5 217t65.5 99q2 14 -15.5 31.5t-29.5 17.5 q-61 0 -135 -86q-86 -102 -86 -234z" />
<glyph unicode="K" horiz-adv-x="1007" d="M9.5 46.5q15.5 -30.5 31.5 -30.5q55 0 74 56q4 16 9 39.5t11 56.5q10 33 29.5 75t46.5 95q23 47 52.5 102.5t64.5 120.5q47 0 77.5 17.5t69.5 68.5q39 -86 72 -151.5t59 -114.5q43 -78 86 -140.5t84 -109.5q98 -111 180 -111q76 0 76 70q0 23 -61 70q-84 66 -127 121 q-31 39 -90 143q-18 33 -37 65.5t-37 67.5q-57 98 -66 160q27 20 71 56t110 87q80 66 149.5 122t128.5 108q144 119 144 135q0 37 -19.5 55t-42.5 18q-33 0 -201 -133q-84 -66 -180 -149.5t-209 -188.5q-12 29 -24.5 39.5t-44.5 22.5q43 80 79 172q39 92 39 135 q0 33 -18 59.5t-47 26.5q-45 0 -96 -63q-51 -59 -52 -91q0 -27 15 -41q6 -6 12 -8q4 -43 -106 -250q-55 -104 -109.5 -206.5t-108.5 -204.5q-110 -231 -110 -311q0 -30 15.5 -60.5z" />
<glyph unicode="L" horiz-adv-x="927" d="M10 188q0 -82 109 -147q106 -61 243 -61q139 0 377 79q236 82 236 117q0 37 -8.5 47t-26.5 10h-12t-19 -2q-78 -23 -153.5 -42t-151.5 -39q-147 -39 -242 -39q-106 0 -147 31.5t-41 80.5q4 33 100 199q41 72 94.5 161t118.5 195q6 10 53.5 83t137.5 214q86 131 86 146 q0 47 -13.5 64.5t-33.5 17.5q-39 0 -135 -127q-35 -47 -81 -117t-100 -162q-41 -72 -84 -143.5t-84 -143.5q-33 -57 -63.5 -113.5t-60.5 -113.5q-98 -182 -99 -195z" />
<glyph unicode="M" horiz-adv-x="1591" d="M-88 70q0 -25 26.5 -47.5t51.5 -22.5q14 0 81.5 72.5t161.5 189.5q20 23 66.5 82t122.5 156q16 20 84.5 110t191.5 250q33 43 65 83t62 79q-39 -86 -90 -209t-117 -289q-131 -326 -131 -356q0 -51 19.5 -66.5t58.5 -15.5q49 0 244 176q68 61 158 149.5t207 204.5 l189.5 189.5t88.5 87.5q-82 -145 -141.5 -255t-100.5 -187q-161 -309 -161 -380q0 -46 31.5 -80t99.5 -34q88 0 176 78q69 67 69 103q0 15 -11 28.5t-30 13.5q-16 -4 -81 -51q-66 -49 -89 -49q-14 0 -14 20q0 16 150 310q35 70 64.5 130t53.5 111q25 53 59 115.5t77 138.5 q129 222 129 271q0 73 -76 73h-2q-33 0 -283 -250q-35 -35 -147.5 -150.5t-302.5 -313.5q-240 -248 -250 -248q-16 0 -13 24q2 20 111 260q49 111 99.5 221.5t101.5 225.5q102 233 102 244q0 31 -19.5 50t-37.5 19q-82 0 -297 -244q-98 -117 -193.5 -232.5t-193.5 -231.5 q-332 -393 -332 -398q-88 -113 -88 -155z" />
<glyph unicode="N" horiz-adv-x="1157" d="M49 -2q33 0 137 176q41 70 91.5 166t111.5 219q37 74 79 160t89 186q10 -78 21.5 -154.5t21.5 -154.5q18 -125 36.5 -218t35.5 -157q51 -180 108 -180q33 0 109 137q20 35 58 109.5t97 191.5q53 106 92.5 181t63.5 118q16 29 74.5 116t159.5 232q61 90 61 110v1 q0 20 -12.5 34.5t-34.5 14.5q-39 0 -96 -63q-49 -55 -117 -156q-23 -35 -53.5 -83t-67.5 -107q-49 -78 -95 -159t-91 -165q-41 -76 -72 -138.5t-53 -115.5q-20 96 -33.5 171t-24.5 130q-20 119 -30 205t-10 141v35q0 33 2 96.5t2 106.5v69q0 39 -9 54q-15 24 -54 24h-3 q-39 0 -117 -170q-145 -330 -239 -504q-47 -86 -93.5 -170t-93.5 -170q-108 -211 -108 -242q0 -77 57 -77z" />
<glyph unicode="O" horiz-adv-x="1046" d="M47 250q0 -94 42 -157.5t130 -63.5q111 0 373 170q260 168 455 374q221 236 221 394q0 100 -97 225q-96 123 -194 123q-25 25 -29 26q-16 10 -37 11q-180 0 -401 -242q-182 -201 -328 -483q-135 -262 -135 -377zM190 242q0 76 99 288q51 106 107.5 203.5t121.5 186.5 q150 205 270 235q-10 -16 -19 -27.5t-13 -19.5q-33 -47 -33 -61q1 -25 33 -33q4 -1 7 -1q32 0 89 56q39 39 100 119q70 0 133 -94q56 -80 56 -131q0 -104 -127 -254q-43 -51 -102.5 -106.5t-137.5 -119.5q-35 -27 -68.5 -53.5t-68.5 -52.5q-39 -35 -82 -68t-94 -61 q-127 -76 -213 -76q-23 0 -40.5 21.5t-17.5 48.5z" />
<glyph unicode="P" horiz-adv-x="915" d="M2 33q0 -27 13.5 -43.5t31.5 -16.5q41 0 172 211q35 59 86 143.5t117 196.5q0 -63 51 -114q41 -41 74 -41q84 0 203 94q205 160 337 434q93 192 93 356q0 68 -29 102t-74 34q-66 0 -246 -164q-135 -123 -239 -250q10 33 22.5 65.5t24.5 67.5q18 51 18 88q0 25 -11 47.5 t-38 22.5q-31 0 -67 -60q-23 -39 -56 -119q-35 -84 -92 -233q-29 -76 -59.5 -148.5t-63.5 -144.5q-8 -16 -58 -112.5t-149 -274.5q-61 -115 -61 -141zM543 561q0 39 100 176q45 63 45 119q0 6 -1 15.5t-3 21.5q35 43 81 92t99 107q137 141 164 141q23 0 23 -27v-43 q0 -55 -78 -217q-84 -172 -182 -295q-121 -147 -216 -147q-6 0 -11 7t-10 17.5t-8 19.5t-3 13z" />
<glyph unicode="Q" horiz-adv-x="1183" d="M45 266q0 -117 33 -174q45 -80 172 -80q68 0 159 33t173 94q10 -43 18 -84t18 -80q27 -92 82 -92q27 0 38.5 24.5t11.5 57.5q0 31 -13 139q-12 111 -12 134q82 70 134 114.5t75 65.5q178 160 272 280q133 170 133 281q0 98 -54 155.5t-171 57.5q-123 0 -242 -49 q-29 -10 -66.5 -31.5t-88.5 -50.5q-10 0 -32.5 2t-35.5 2q-35 0 -82 -14.5t-116 -51.5q-129 -66 -261 -286q-145 -244 -145 -447zM172 299q0 121 111 279q45 63 98 119.5t113 107.5q111 92 145 92q6 0 13 -8t15.5 -17.5t17.5 -16.5t20 -7q25 0 54 27.5t29 70.5q0 16 -6 39 q49 29 150 51q94 20 141 21q63 0 105.5 -24.5t42.5 -61.5q0 -72 -99 -201q-129 -166 -401 -389q2 53 3 105.5t1 103.5v31q0 18 2 38q0 25 -8 33t-39 8q-74 0 -94 -159q-4 -31 -6 -96.5t-2 -165.5q-63 -59 -138 -99q-98 -49 -182 -49q-51 0 -74 66q-12 39 -12 102z" />
<glyph unicode="R" horiz-adv-x="1093" d="M33 86q0 -37 7 -57.5t38 -20.5q51 0 112 94q35 59 71 119t71 119q33 51 52 85t30 50q4 8 14 27.5t27 50.5q14 -29 21 -46.5t11 -21.5q25 -37 78 -43q12 0 21 -2q25 0 43 8.5t55 28.5q0 -51 14.5 -114.5t32.5 -114.5q43 -111 115 -173.5t166 -62.5q45 0 72.5 20.5 t27.5 55.5q0 33 -22 55q-6 6 -21.5 13.5t-35 16.5t-40 20.5t-37.5 23.5q-41 35 -61 78q-63 147 -64 262q49 37 100.5 81t104.5 97q141 137 224 260q104 154 104 267q0 33 -26.5 59.5t-80.5 26.5q-63 0 -144 -32t-167 -104q-197 -166 -344 -331q14 37 31.5 77.5t31 77.5 t22.5 69t9 54q0 27 -26.5 46.5t-55.5 19.5q-33 0 -125 -215q-72 -168 -113.5 -263.5t-53.5 -119.5q-12 -23 -58.5 -100.5t-128.5 -211.5q-102 -168 -102 -229zM639 602.5q-14 14.5 0 28.5t28.5 -0.5t0 -28.5t-28.5 0.5zM692 803q23 27 55.5 61.5t73.5 75.5q33 33 68 64.5 t69 64.5q33 29 67 52.5t71 43.5q77 41 116 41q20 0 21 -16q0 -25 -29.5 -77t-81.5 -114q-41 -51 -83 -96t-85 -84q-72 -66 -151 -119q-12 31 -49 60q-23 14 -62 43z" />
<glyph unicode="S" horiz-adv-x="835" d="M-35 479q0 -80 105 -258q125 -205 239 -205q72 0 152 138q33 57 65.5 131.5t65.5 171.5q20 57 43.5 134t52.5 175q23 84 45.5 166t44.5 168q41 145 64 145q61 0 127 -61q55 -53 55 -94q0 -37 -55.5 -68t-55.5 -39q-2 -33 37 -33q70 0 142 60q63 51 63 84q0 78 -84 172 q-51 57 -119 100q-18 12 -30.5 18.5t-22.5 9.5t-25 3h-30q-68 0 -123 -86q-41 -63 -88 -213q-10 -35 -27.5 -100.5t-44.5 -166.5q-43 -172 -86 -313q-109 -350 -184 -350q-25 0 -58 45q-16 23 -16 33q0 18 16.5 40.5t16.5 32.5q0 59 -117 150q-20 14 -49 33.5t-68 42.5 q-20 0 -35.5 -22.5t-15.5 -43.5z" />
<glyph unicode="T" horiz-adv-x="804" d="M172 8q0 -35 5 -45t44 -10q43 0 66 37q14 31 28.5 62.5t28.5 66.5q23 49 50.5 100t58.5 105q29 47 64.5 106t80.5 131q39 59 81 123t89 131q104 150 157.5 226.5t57.5 84.5l176 4q143 0 187 17q43 14 43 49q0 49 -70 57q-68 12 -320 13q-195 0 -405 -31 q-270 -41 -270 -100q0 -53 57 -54q70 6 134.5 12.5t125.5 12.5q125 12 174 12q-8 -14 -56 -90t-141 -213q-201 -307 -294 -467q-152 -262 -152 -340z" />
<glyph unicode="U" horiz-adv-x="983" d="M35 127q0 -80 52 -125t128 -45q133 0 307 109q129 86 260 223q35 37 69 77t69 80q86 111 151.5 210.5t112.5 193.5q112 223 112 399q0 37 -18 63.5t-47 26.5q-80 0 -80 -69q0 -20 3 -43t3 -33q0 -41 -16 -96q-4 -18 -25 -70q-41 -117 -112.5 -243t-157.5 -232 q-145 -178 -301 -309q-182 -154 -285 -154q-55 0 -74.5 24.5t-19.5 69.5q0 59 37 189q18 66 39.5 131t46.5 131q39 100 86 194q49 98 78 134q23 10 46 19t46 19q35 29 35 80q0 33 -20.5 47.5t-53.5 14.5q-102 0 -209 -187q-35 -59 -67.5 -131.5t-65.5 -165.5 q-23 -66 -45.5 -138t-42.5 -154q-41 -168 -41 -240z" />
<glyph unicode="V" horiz-adv-x="858" d="M233 135q0 -43 13.5 -74.5t44.5 -31.5q66 0 235 215q74 100 148 200.5t149 202.5q51 66 107.5 146.5t122.5 179.5q118 176 118 188q0 35 -13 55.5t-52 20.5t-176 -221q-109 -170 -135 -209q-37 -51 -86.5 -120t-112.5 -157q-104 -141 -195 -235q4 33 14.5 93.5 t26.5 150.5q25 166 25 292q0 160 -53 273q-51 113 -109 113q-25 0 -44 -17.5t-19 -42.5q29 -84 57.5 -164t28.5 -182q0 -129 -31 -303q-63 -360 -64 -373z" />
<glyph unicode="W" horiz-adv-x="1337" d="M27 109q0 -20 18 -45t37 -25q61 0 197 141q45 47 107.5 121t143.5 178q88 111 144.5 180.5t83.5 98.5q-57 -141 -91 -227.5t-46 -120.5q-70 -197 -70 -320q0 -39 15.5 -53t43.5 -14q59 0 277 186q174 150 387 362q178 180 362 412q187 229 187 268q0 29 -16.5 49.5 t-53.5 20.5q-25 0 -102 -96q-10 -14 -53.5 -67.5t-114.5 -149.5q-57 -74 -103.5 -131.5t-85.5 -98.5q-92 -98 -164.5 -173t-130.5 -130q-68 -66 -138 -129t-146 -127q25 106 125 334q41 94 82 187.5t82 189.5q83 195 83 253q0 52 -43 52q-45 0 -213 -193 q-39 -43 -116.5 -137t-198.5 -241q-96 -117 -158.5 -187.5t-95.5 -97.5q16 49 44 127t65 184q29 86 59.5 172t58.5 172q14 41 26.5 82t27.5 82q0 37 -16.5 58.5t-49.5 21.5q-39 0 -110 -170q-18 -47 -47 -127t-68 -197q-78 -231 -148 -436q-14 -45 -33.5 -104.5 t-43.5 -134.5z" />
<glyph unicode="X" horiz-adv-x="868" d="M-14 8q0 -20 12 -38.5t27 -20.5q25 0 118 112q18 23 65.5 84.5t125.5 165.5q63 84 108 141.5t74 92.5q6 -18 24.5 -74.5t51.5 -155.5q92 -282 137 -282q18 0 29.5 20.5t11.5 69.5q0 94 -57 278q-23 66 -43.5 131.5t-42.5 131.5q27 25 54.5 50t57.5 54q61 55 111.5 98 t91.5 76q23 18 50.5 40t62.5 46q88 64 88 78q0 61 -53 61q-55 0 -263 -168q-88 -72 -147 -122t-90 -82q-27 66 -52.5 133t-52.5 135q-78 190 -112 190q-27 0 -48.5 -23.5t-21.5 -53.5q23 -66 41 -118t31 -87q39 -104 65.5 -176t42.5 -111q-121 -133 -288 -350 q-209 -276 -209 -326z" />
<glyph unicode="Y" horiz-adv-x="890" d="M8 -96q0 -20 18.5 -45t32.5 -25q39 0 152 168q70 109 131 170q8 8 45 53t106.5 131t107.5 131t42 53.5t48 54.5t128 134q129 137 204 216t95 102q156 168 156 188q0 72 -62 72q-41 0 -114 -74q-16 -16 -63.5 -68.5t-125.5 -140.5t-155.5 -171t-155.5 -161q-8 23 -14 49.5 t-12.5 57t-18.5 87t-29 142.5q-25 113 -57 174q-39 76 -92 76q-29 -12 -39 -21q-39 -27 -39 -53q0 -2 31 -76q16 -37 30.5 -76.5t28.5 -82.5q16 -51 49 -224q23 -121 53 -170q-92 -111 -161.5 -197.5t-118.5 -152.5q-201 -260 -201 -321z" />
<glyph unicode="Z" horiz-adv-x="983" d="M4 111q0 -51 38 -79t142 -28q98 0 263 13.5t364 31.5q12 0 34.5 -8t31.5 -8q69 0 69 76q0 25 -14 45q-22 34 -66 34h-2q-27 0 -133 -9t-293 -25q-78 -8 -134 -11.5t-91 -3.5q-53 0 -53 21q0 23 78 84q31 25 76.5 58.5t109.5 74.5q16 10 70.5 47t148.5 96q78 51 137.5 92 t102.5 76q247 193 247 328q0 82 -81 139q-80 61 -181 62q-258 0 -387 -34t-129 -89q0 -49 12.5 -69.5t61.5 -20.5q43 16 86 31.5t88 31.5q86 27 219 27q68 0 120 -25t52 -65q0 -78 -149 -197q-47 -39 -116 -86t-157 -100.5t-149.5 -93.5t-100.5 -66q-145 -98 -221 -178 q-94 -94 -94 -172z" />
<glyph unicode="[" horiz-adv-x="786" d="M109 -74q0 -55 55 -55q8 0 23.5 -1t37.5 -3h86h103q47 0 70.5 17.5t23.5 43.5q0 53 -66 54h-26q-23 0 -64 2q-82 4 -94 8q47 123 78 198.5t41 104.5q23 57 48.5 120.5t53.5 133.5q20 47 51 120.5t74 178.5q35 82 60.5 144.5t46.5 109.5l80 184h90t86 4q102 1 102 58 q0 18 -23.5 37.5t-50.5 19.5h-159q-66 0 -94.5 -12.5t-45.5 -36.5q-14 -18 -47 -91t-86 -202q-47 -111 -95 -230.5t-99 -254.5q-23 -57 -46.5 -117t-48.5 -123q-41 -100 -78.5 -190.5t-76.5 -174.5q-10 -25 -10 -47z" />
<glyph unicode="\" horiz-adv-x="806" d="M164 1397q0 -23 37 -148q2 -8 22.5 -74.5t61.5 -193.5q23 -70 44 -142.5t44 -150.5l202 -670q10 -31 30 -54t42 -23q33 0 39 28.5t6 75.5q0 33 -74 258q-57 174 -89.5 273.5t-41.5 128.5q-23 72 -47 157.5t-53 186t-47.5 164t-26.5 90.5l-24 92q-25 84 -74 84 q-20 0 -35.5 -29t-15.5 -53z" />
<glyph unicode="]" horiz-adv-x="786" d="M-16 -88q0 -18 20.5 -37.5t46.5 -19.5h160q66 0 94.5 12t44.5 37q14 18 47 90t86 196q47 111 95.5 231t99.5 255q23 57 46.5 116.5t47.5 122.5q41 100 79 192.5t77 178.5q10 25 10 47q0 55 -55 56q-41 4 -113 4h-137q-47 0 -70.5 -17.5t-23.5 -44.5q0 -53 65 -53h25 q23 0 63 -2q84 -4 96 -8q-47 -127 -77.5 -204t-40.5 -106q-23 -57 -48.5 -120.5t-54.5 -132.5q-20 -47 -51 -121t-74 -178q-35 -82 -61.5 -145.5t-47 -111t-39 -91.5t-38.5 -85h-74q-20 0 -39.5 -1t-62.5 -3q-96 0 -96 -57z" />
<glyph unicode="^" horiz-adv-x="1015" d="M442 1106q0 -53 58 -53q39 0 176 100q37 27 86 62.5t110 82.5q66 -145 101 -204q47 -78 76 -78q33 0 57 16.5t24 36.5q0 39 -36 107q-23 41 -39.5 73.5t-24.5 55t-18.5 49t-22.5 57.5q-25 63 -59 64q-37 0 -96 -52q-51 -41 -84 -67.5t-50 -36.5q-59 -39 -104 -70.5 t-76 -54.5q-78 -59 -78 -88z" />
<glyph unicode="_" horiz-adv-x="1083" d="M4 -166q0 -33 12.5 -45t49.5 -12q117 12 215 22.5t157 10.5l492 49q51 4 81.5 8t41.5 6q61 12 61 39q0 66 -61 65l-205 -12q-43 0 -127 -6t-209 -16q-68 -6 -161 -15.5t-216 -19.5q-59 -4 -95 -17.5t-36 -56.5z" />
<glyph unicode="`" horiz-adv-x="892" d="M573 1319q0 -150 117 -266q90 -90 137 -90q31 0 50 28q12 18 12 41q0 35 -43 60q-61 35 -101 129q-10 43 -21 86t-22 88q-10 31 -47 30q-33 0 -57.5 -41t-24.5 -65z" />
<glyph unicode="a" horiz-adv-x="860" d="M-6 86q0 -29 27.5 -57.5t68.5 -28.5q86 0 217 100q51 43 102.5 86t104.5 86q-14 -39 -24.5 -79.5t-10.5 -73.5q0 -45 23 -80q35 -41 112 -41q94 0 215 96q8 6 168 166q18 18 25.5 32.5t7.5 33.5q0 43 -35 43q-10 0 -18 -9q-33 -31 -65.5 -61.5t-65.5 -60.5 q-121 -111 -203 -111q-18 0 -25.5 16.5t-7.5 40.5q0 90 82 211q27 39 64 87t88 106q14 16 30.5 35.5t38.5 44.5q29 35 29 57q0 57 -49 57q-10 0 -32.5 -18.5t-45.5 -30.5q-43 37 -102 37q-80 0 -238 -127q-23 -18 -61.5 -52t-96.5 -85q-59 -55 -115.5 -115.5t-107.5 -126.5 q-100 -131 -100 -178zM196 182q-2 3 -1 7q-1 39 177 217q196 196 257 196q14 0 14 -18q0 -20 -10 -45q-29 -53 -221 -220q-167 -141 -206 -141q-7 0 -10 4z" />
<glyph unicode="b" horiz-adv-x="753" d="M-74 125q0 -61 54 -62q18 0 90 56q29 23 47 35t22 16q-12 -33 -15 -52.5t-3 -64.5q0 -39 23.5 -61.5t72.5 -22.5q166 0 375 219q190 205 190 316q14 2 117 18q104 18 164 19q41 0 70.5 23.5t29.5 50.5q0 40 -71 40q-70 0 -154 -8t-156 -18q-40 67 -123 67h-2 q-49 0 -139 -65q-35 -29 -71.5 -57.5t-71.5 -57.5l-6 6q27 51 184 332q61 111 101 184.5t61 114.5q67 133 67 175q0 26 -9 33t-40 11h-2q-25 0 -59 -61q-14 -27 -28.5 -52.5t-29.5 -52.5q-133 -238 -258 -479l-190 -385q-57 -43 -94 -70.5t-54 -42.5q-92 -80 -92 -104z M258 152q0 25 13.5 71.5t27.5 79.5q147 129 231 156q47 14 73.5 19t53.5 5q-23 -90 -163 -235q-145 -145 -203 -146q-23 0 -28 7.5t-5 42.5z" />
<glyph unicode="c" horiz-adv-x="579" d="M6 143q0 -66 45 -105.5t107 -39.5q113 0 262 76q47 27 108.5 66.5t135.5 92.5q49 35 75.5 65.5t26.5 61.5q0 29 -41 29q-14 2 -48 -20.5t-63 -42.5q-57 -39 -97 -66t-66 -43q-156 -94 -256 -94q-47 4 -48 39q0 43 62 133q31 45 63.5 84t67.5 72q41 41 84 71.5t84 52.5 q70 37 133 52q66 14 91.5 30.5t25.5 44.5q0 31 -15.5 44.5t-68.5 13.5q-57 0 -162 -51q-53 -25 -101.5 -54.5t-93.5 -64.5q-117 -90 -219 -242q-92 -139 -92 -205z" />
<glyph unicode="d" horiz-adv-x="647" d="M8 100q0 -100 82 -100q121 0 232 68q41 27 93 69.5t111 102.5q166 172 226 295q77 162 77 391q0 207 -122 317q-90 78 -189 78q-98 0 -176 -47q-68 -41 -68 -84q0 -35 21 -43q4 -2 20 -2q25 0 54 20q63 43 114 43q111 0 168.5 -75.5t57.5 -217.5q0 -53 -6.5 -93 t-16.5 -74q-78 0 -207 -62q-131 -63 -223 -156q-109 -109 -184 -247q-63 -119 -64 -183zM164 190q0 20 49 95q41 59 73.5 102t57.5 66q51 45 123 92q108 65 180 65q-16 -35 -34.5 -68.5t-41.5 -64.5q-25 -35 -53.5 -67.5t-60.5 -63.5q-43 -43 -125 -106q-102 -82 -139 -82 q-29 0 -29 32z" />
<glyph unicode="e" horiz-adv-x="577" d="M0 168q0 -90 66 -125q41 -23 118 -23q76 0 230 80q155 82 307 166q31 16 42 38t9 40q0 25 -12 32t-35 7q-113 -61 -229 -121q-229 -119 -308 -119q-23 0 -42 21.5t-19 46.5q0 41 27 80q4 4 12 16l22 33q152 0 396 176q229 168 229 246q0 35 -21.5 62.5t-54.5 27.5 q-104 0 -213 -51q-109 -49 -270 -195q-109 -98 -178 -215q-76 -125 -76 -223zM299 485q20 29 67.5 70t96.5 76q39 27 88 48.5t98 35.5q-16 -16 -35.5 -34.5t-40.5 -37.5q-51 -49 -88 -72q-49 -33 -103 -59.5t-83 -26.5z" />
<glyph unicode="f" horiz-adv-x="636" d="M-186 -631q0 -31 16 -51t37 -20q23 0 44 23.5t21 57.5q0 59 103 277q43 86 96 181t119 202q20 35 50 84t71 115q51 84 105 173t112 187q23 4 67.5 16.5t116.5 30.5q117 29 187.5 44.5t97.5 19.5q55 6 80.5 16t34 39t-8 44t-73.5 15q-16 0 -127 -21.5t-304 -60.5 q76 125 185 258q143 182 211 205q23 8 84 25q45 14 45 45q0 49 -103 49q-111 0 -256 -161t-323 -472q-72 -14 -135.5 -30.5t-116.5 -32.5q-143 -45 -144 -82q0 -14 9.5 -29.5t31.5 -15.5q33 0 114 18.5t181 46.5q-39 -57 -67.5 -102t-48.5 -80q-41 -66 -123 -203 q-55 -90 -101.5 -164.5t-83.5 -138.5q-47 -90 -82.5 -161.5t-60.5 -129.5q-61 -141 -61 -217z" />
<glyph unicode="g" horiz-adv-x="778" d="M-381 -629q0 -80 47 -151q45 -70 121 -70q92 0 213 111q47 47 95 106.5t100 132.5q12 16 71.5 107.5t165.5 257.5q39 59 80 118.5t86 118.5q23 12 62.5 31t99.5 41q182 74 182 109q0 53 -53 53q-29 0 -129 -43q-16 -6 -39 -15.5t-51 -23.5q23 35 43 69.5t43 69.5 q51 82 51 115q0 53 -53 53q-37 0 -109 -102q-25 -41 -49.5 -81t-48.5 -81q-98 -63 -186.5 -98t-135.5 -35q-33 0 -51 23.5t-18 45.5q0 61 172 197q172 139 303 160q51 8 67 18q30 15 30 45q0 5 -1 11q-6 49 -65 49q-100 0 -216 -60q-86 -47 -206 -141q-53 -41 -93.5 -81 t-66.5 -75q-68 -92 -68 -180q0 -74 80 -106q57 -25 154 -25l2 -8q-182 -68 -381 -258q-248 -229 -248 -408zM-264 -616q0 63 71 159q33 41 76 87t101 96q45 45 102 91t127 93q113 80 203 123l6 -6q-78 -96 -166 -228q-23 -35 -60.5 -89t-89.5 -128q-51 -76 -76.5 -115.5 t-29.5 -44.5q-100 -137 -190 -137q-35 0 -54.5 29t-19.5 70z" />
<glyph unicode="h" horiz-adv-x="966" d="M4 86q0 -39 13.5 -60.5t52.5 -21.5q35 0 123 66q43 33 86 65.5t88 67.5q76 57 165 123q88 63 142 98l8 -10q-102 -164 -117 -197q-33 -68 -33 -117q0 -55 23 -73.5t76 -18.5q115 0 239 76q51 35 102.5 72t104.5 73q20 12 33.5 31t11.5 35q0 33 -39 33q-23 0 -55 -21 q-59 -41 -108.5 -71.5t-88.5 -53.5q-100 -57 -141 -57q-23 0 -22 37q0 33 63 139q33 53 61.5 92t53.5 66q23 25 41 47t35 43q61 76 61 119q-2 14 -15.5 27.5t-37.5 13.5q-33 0 -207 -115q-78 -53 -158 -109.5t-164 -117.5q-68 -51 -123 -94.5t-100 -77.5l-10 8q8 16 86 155 q23 43 29 60q20 20 295 246q104 86 181 157.5t128 130.5q141 162 141 281q0 37 -45 37q-129 0 -291 -150q-59 -53 -126.5 -133t-145.5 -184q-53 -74 -105.5 -147.5t-105.5 -147.5q-35 -59 -60.5 -104.5t-42.5 -77.5q-102 -193 -102 -240zM451 668q37 49 58 76.5t26 35.5 q29 35 58.5 70t59.5 70q23 23 44.5 47t43.5 49q88 94 115 94q23 0 23 -18q0 -14 -97 -111q-14 -14 -33.5 -32.5t-46.5 -43.5z" />
<glyph unicode="i" horiz-adv-x="540" d="M0 78q0 -29 27.5 -49.5t50.5 -20.5q76 0 270 115q215 129 440 307q52 39 52 59q0 41 -37 41q-20 0 -47 -18q-117 -88 -281 -188q-217 -133 -272 -134q-14 0 -15 17q0 37 82 151q82 117 201 250q20 23 92 60q51 27 51 63q0 37 -18 48.5t-47 11.5q-68 0 -209 -162 q-127 -145 -233.5 -319.5t-106.5 -231.5zM647 1139q0 -33 39 -70t64 -37q27 0 51 31q27 31 37 39q10 6 69 16q60 12 60 53q0 25 -29 41.5t-70 16.5q-98 0 -168 -35q-53 -29 -53 -55z" />
<glyph unicode="j" horiz-adv-x="471" d="M-547 -645q0 -18 21.5 -40t40.5 -22q80 0 221 146q104 106 227 276q29 47 58.5 92.5t62.5 90.5q137 184 276 374q82 113 137.5 194t88.5 128q92 143 92 182q0 23 -13.5 44.5t-31.5 21.5t-62 -58q-29 -35 -110 -159q-66 -96 -104 -152.5t-52 -77.5q-4 -4 -30.5 -42 t-79.5 -109q-35 -47 -72 -100.5t-78 -110.5q-63 -94 -129 -181.5t-133 -173.5q-86 -104 -128 -157t-44 -56q-53 -53 -88 -53q-29 0 -49.5 -20.5t-20.5 -36.5zM743 1118q0 -23 48 -76q45 -51 67 -51q16 0 36.5 25.5t20.5 54.5q0 18 -7 40t-19 40t-26.5 29.5t-28.5 11.5 q-33 0 -62 -22.5t-29 -51.5z" />
<glyph unicode="k" horiz-adv-x="798" d="M4 102q0 -47 10.5 -70.5t51.5 -23.5q29 0 118.5 59.5t257.5 178.5q27 -59 58.5 -109.5t72.5 -89.5q70 -63 142 -63q37 0 37 43q0 27 -64 96q-86 96 -137 194q61 35 122.5 70t125.5 70q334 186 334 282q0 29 -46 29q-20 0 -190 -109q-86 -53 -171 -107t-173 -110 q-29 -16 -70 -42.5t-94 -61.5q-66 -41 -121 -73t-98 -52q12 23 28.5 51.5t37.5 63.5q23 35 39 62.5t30 47.5q86 66 213 224q41 53 91 121.5t110 154.5q90 133 90 149q0 59 -35 60q-43 0 -139 -103q-41 -43 -97.5 -108.5t-128 -157.5t-137 -185t-127.5 -194 q-141 -227 -141 -297z" />
<glyph unicode="l" horiz-adv-x="495" d="M0 74q0 -27 21.5 -48.5t48.5 -21.5q47 0 284 139q92 55 182.5 110.5t182.5 111.5q37 23 66.5 48.5t25.5 35.5q-10 29 -45 34q-14 2 -52 -18.5t-73 -38.5q-59 -35 -119.5 -67.5t-120.5 -65.5q-72 -39 -131 -68.5t-110 -52.5q74 143 169 306t208 343q76 113 153 234 q80 119 80 145q0 25 -10 43.5t-31 18.5q-35 0 -158 -183q-16 -25 -68 -108.5t-145 -227.5q-66 -106 -127 -207.5t-114 -199.5q-117 -219 -117 -262z" />
<glyph unicode="m" horiz-adv-x="1144" d="M-31 47q0 -63 39 -63q23 0 70 36q14 12 36.5 34t55.5 54.5t74 69.5t88 78q94 82 153 123l13 -14q-43 -63 -88 -170q-45 -102 -45 -140q0 -16 12 -35.5t41 -19.5q14 0 48 28.5t71 61.5q102 88 158.5 135t66.5 58q37 29 70.5 54t66.5 46l12 -14q-10 -20 -28.5 -49 t-42.5 -70q-63 -109 -64 -191q0 -33 16.5 -54t43.5 -21q82 0 256 100t174 147q0 37 -31 35q-12 0 -133 -69q-123 -68 -144 -68q-23 0 -22 39q0 10 49 96q16 33 37.5 69t48.5 77q10 16 24.5 39.5t37.5 56.5q61 94 61 123q0 33 -33 33q-35 0 -184 -105q-135 -96 -399 -307 l-15 12q4 6 37 78q16 35 27.5 58.5t19.5 37.5q16 25 32.5 50.5t31 48t22.5 40t8 25.5q0 29 -16 45.5t-33 16.5q-41 0 -166 -107q-66 -55 -172 -154l-14 13q23 45 46.5 92t23.5 67q0 27 -11.5 40.5t-42.5 11.5q-31 0 -61 -47q-10 -16 -42 -66.5t-85 -136.5 q-133 -197 -137 -201q-61 -102 -62 -127z" />
<glyph unicode="n" horiz-adv-x="835" d="M8 94q0 -37 23 -65q6 -8 22 -19q66 0 281 154l252 190l8 -10q-10 -14 -30.5 -45t-53.5 -80q-55 -96 -55 -168q0 -29 25.5 -44t56.5 -11q76 0 280.5 125t204.5 158q0 43 -39 43q-12 0 -174 -93q-164 -90 -182 -90t-19 15q0 14 37 67q14 23 295 330q86 94 86 129 q0 39 -22 39q-29 0 -95 -39q-33 -20 -94 -61t-153 -107q-66 -47 -160 -110.5t-219 -143.5l-11 8q20 35 52 80t79 103q160 197 160 251q0 49 -57 50q-31 0 -160 -164q-49 -63 -105.5 -140t-119.5 -172q-113 -164 -113 -180z" />
<glyph unicode="o" horiz-adv-x="579" d="M-2 47q0 -47 18.5 -74.5t69.5 -27.5q61 0 244 172q76 74 144.5 151.5t133.5 159.5q131 12 197 33q94 26 94 71q0 31 -37 35q-2 0 -27.5 -3t-72.5 -7t-80 -8t-51 -8q0 4 1 13t3 21v33q0 82 -25 129q-31 55 -98 56q-80 0 -180 -99q-35 -35 -63.5 -70.5t-51.5 -76.5 q-41 -63 -65.5 -104.5t-34.5 -57.5q-117 -207 -117 -301q-2 -8 -2 -37zM125 113q0 10 35 96q16 41 31.5 74.5t29.5 62.5q29 57 56.5 106.5t56.5 90.5q88 129 141 129q20 0 28.5 -28.5t8.5 -59.5q-8 -117 -176 -318q-152 -182 -193 -182q-18 0 -18 29z" />
<glyph unicode="p" horiz-adv-x="741" d="M-573 -629q0 -45 41 -45q47 0 106 96q23 37 37 59.5t22 33.5q41 53 89.5 113.5t101.5 127.5q14 16 60 74.5t128 161.5q47 53 88 102t76 90q0 -78 19 -123q27 -61 84 -61q135 0 296 133q127 109 236 273q96 145 96 198q0 45 -17.5 77t-60.5 32q-115 0 -206 -41 q-8 8 -15.5 14t-15.5 14q-16 10 -33 11q-68 0 -229 -174q-55 -63 -106.5 -124t-98.5 -120q-63 -78 -104 -132.5t-64 -82.5q-72 -84 -129 -152.5t-102 -122.5q-72 -86 -123.5 -153.5t-85.5 -114.5q-90 -127 -90 -164zM303 147q0 109 70 187q12 14 94 94q49 51 88 84t73 51.5 t65.5 25.5t66.5 7q24 0 24 -35q0 -47 -184 -250q-181 -200 -253 -200h-1q-18 0 -30.5 6t-12.5 30z" />
<glyph unicode="q" horiz-adv-x="745" d="M-20 -596q0 -53 14 -84t53 -31q41 0 65.5 20.5t24.5 57.5q0 31 -15.5 42t-15.5 28q0 37 166 280q66 98 141.5 202t161.5 216l277 363q61 82 61 100q0 94 -75 94q-119 0 -242 -53t-260 -152q-117 -86 -230 -219q-106 -125 -106 -174q0 -33 26.5 -59.5t51.5 -26.5 q92 0 244 90q41 29 84 56.5t86 56.5l8 -10q-35 -43 -80 -101.5t-103 -132.5q-78 -104 -135 -187t-96 -142q-106 -176 -106 -234zM180 176q23 43 82.5 109.5t130.5 124.5q86 63 176 103t158 48q-23 -27 -46.5 -53.5t-47.5 -54.5q-49 -55 -96 -88q-23 -16 -66 -41t-104 -60 q-72 -39 -118 -61.5t-69 -26.5z" />
<glyph unicode="r" horiz-adv-x="645" d="M20 72q0 -61 39 -62q29 0 61 18.5t48 47.5q27 41 52.5 79t53.5 76q76 104 119 142q39 33 78 63.5t78 59.5q29 20 69.5 48.5t94.5 65.5q37 25 73.5 32t85.5 7q23 -2 43 -2h43q76 0 110 12.5t34 57.5q0 47 -20.5 64.5t-61.5 17.5q-76 0 -154 -12.5t-137 -45.5 q-47 -27 -92 -54.5t-90 -57.5q-35 -25 -66.5 -48.5t-58.5 -45.5l6 79q0 31 -15.5 48.5t-56.5 17.5q-53 0 -71 -78q-16 -66 -28.5 -108.5t-23.5 -59.5q-33 -53 -65.5 -104t-65.5 -105q-82 -131 -82 -153z" />
<glyph unicode="s" horiz-adv-x="649" d="M-76 274q0 -31 51 -100q8 -10 25.5 -34.5t46.5 -59.5l46.5 -46.5t25.5 -23.5q49 -28 106 -28h4q104 0 183 108q47 70 94 219q10 39 26.5 94.5t36.5 131.5q43 151 81 151h1q29 0 46.5 -21.5t17.5 -41.5l2 -80q0 -18 24 -19q35 0 53.5 27.5t18.5 95.5q0 53 -47 106.5 t-107 53.5q-113 0 -163 -117q-16 -37 -78 -268q-27 -96 -42.5 -149.5t-19.5 -67.5q-45 -106 -129 -107q-14 0 -22 1t-16.5 4t-17.5 11.5t-24 24.5q20 23 25.5 33t7.5 37q0 20 -74 67q-76 47 -106 48q-47 0 -61.5 -6.5t-14.5 -43.5z" />
<glyph unicode="t" horiz-adv-x="495" d="M53 78q0 -45 10.5 -61.5t47.5 -16.5q27 0 41 51q27 70 30 80q27 63 51 96q37 57 74 113.5t76 114.5q57 84 113.5 158.5t115.5 140.5q16 0 41 1t55.5 3t54 3t40.5 1q2 0 26.5 -3t71.5 -7q10 -2 21 -2h28q37 0 51.5 21t14.5 56q0 25 -40 33t-112 8h-157q6 10 20 27.5 t37 46.5q72 90 72 111q0 47 -13.5 57t-40.5 8q-33 0 -84 -57q-31 -35 -65.5 -82t-73.5 -109q-92 -14 -142 -22t-63 -12q-100 -20 -100 -58q0 -8 18.5 -26.5t30.5 -18.5h35q20 0 41 -2q16 0 35.5 2t44.5 6q-59 -66 -123 -159q-23 -35 -45.5 -68t-44.5 -68q-76 -115 -115 -173 t-41 -62q-37 -72 -37 -131z" />
<glyph unicode="u" horiz-adv-x="942" d="M10 8q0 -16 19.5 -31.5t42.5 -15.5q51 0 282 172q59 47 140 110.5t182 141.5l8 -10q-59 -92 -98 -172t-39 -125q0 -66 65 -66q66 0 205 103q8 6 60.5 49t150.5 123q31 20 62 49q40 37 40 57q2 18 -34 29h-2q-29 0 -172 -94q-41 -29 -84 -56.5t-84 -56.5l-11 8 q20 31 56.5 86.5t89.5 132.5q155 240 155 307q0 46 -38 46q-25 0 -82 -64q-4 -4 -31 -35.5t-74 -89.5q-27 -16 -89 -62t-163 -120q-147 -109 -233 -168t-115 -74l-10 8l135 203q12 18 33.5 46t50.5 65q86 106 86 151q0 20 -18 39q-10 10 -23 11q-55 0 -129 -101 q-14 -18 -45 -67.5t-82 -130.5q-29 -43 -55.5 -86.5t-55.5 -83.5q-96 -152 -96 -228z" />
<glyph unicode="v" horiz-adv-x="677" d="M-8 119q0 -45 21.5 -72t58.5 -27q98 0 243 93q125 80 265 215q137 137 245.5 282.5t108.5 192.5q0 23 -17.5 32t-37.5 9q-23 0 -35.5 -25.5t-22.5 -54.5q-16 -35 -82 -117q-39 -47 -76.5 -90t-76.5 -80q-150 -150 -269 -227q-84 -57 -126 -57h-5q-23 0 -22 28 q0 27 18.5 55.5t52 72.5t82.5 104q176 213 177 231q0 27 -27 45q-10 8 -31 8q-51 0 -162 -141q-18 -23 -42.5 -58.5t-57.5 -82.5q-141 -166 -174 -285q-8 -27 -8 -51z" />
<glyph unicode="w" horiz-adv-x="878" d="M8 86q0 -29 17.5 -43t31.5 -14q70 0 293 235q129 137 180 174q-16 -51 -27 -89t-20 -64q-45 -147 -45 -162q0 -51 12.5 -79t53.5 -28q68 0 231 146q137 123 266 272t129 180q0 41 -6 54q-12 24 -55 24h-4q-33 0 -90 -80q-29 -39 -57.5 -78.5t-57.5 -80.5 q-29 -37 -63.5 -76t-75.5 -80q-100 -100 -135 -100q6 29 12 58.5t14 57.5q121 301 121 338q0 57 -53 58q-51 0 -209 -156q-43 -41 -99.5 -97.5l-127.5 -127.5q27 55 50 110.5t46 110.5q53 135 53 156q0 16 -16.5 30.5t-44.5 14.5q-37 0 -76 -86q-18 -43 -36.5 -86t-35.5 -84 l-110 -234q-66 -141 -66 -174z" />
<glyph unicode="x" horiz-adv-x="614" d="M-82 -119q0 -33 33 -33q39 0 143 121q100 106 283 326q12 -45 19 -95t7 -85v-35q0 -31 10.5 -48.5t39.5 -17.5q55 0 65 68q0 164 -37 348q45 47 89 93t89 93q119 125 119 150q0 37 -28 37q-37 0 -142 -92q-92 -80 -153 -158q-25 82 -43 113q-29 47 -70 47 q-20 0 -41.5 -14.5t-24.5 -39.5q0 -27 31 -96q33 -72 43 -123l-227 -264q-162 -190 -182 -227q-23 -39 -23 -68z" />
<glyph unicode="y" horiz-adv-x="819" d="M-346 -424q0 -41 41 -71.5t88 -30.5q203 0 440 178q158 115 281 262q86 94 184 242q29 43 70 104.5t94 138.5q160 180 160 207q0 29 -12.5 49.5t-49.5 20.5q-45 0 -126 -78t-173 -213q-293 -213 -311 -223q-90 -55 -123 -56q-29 0 -37 5.5t-8 29.5q0 41 92 176 q94 137 172 215q33 29 66 59t65 58q31 31 31 56q0 37 -45 45h-5q-46 0 -171 -113q-129 -119 -223 -260q-113 -164 -113 -283q0 -51 16 -80q27 -37 103 -37q96 0 211 70q16 10 62 45t118 92l6 -6q-121 -221 -377 -416q-223 -174 -346 -174q-43 0 -57.5 33t-52.5 33 q-39 0 -54.5 -26.5t-15.5 -51.5z" />
<glyph unicode="z" horiz-adv-x="925" d="M4 57q0 -45 41 -62.5t102 -17.5l635 109q35 -6 43 -27q4 -12 4 -32t9.5 -26.5t42.5 -6.5q53 0 106 43q53 47 53 94q0 31 -26 45q-33 20 -113 21q-35 0 -107.5 -10.5t-185 -31t-180.5 -30.5t-92 -10q-27 0 -44.5 4t-29.5 8q10 10 29.5 27.5t48.5 42.5q70 57 135 110 q82 59 135.5 99t77.5 59q205 156 205 213q0 41 -27.5 54t-91.5 13q-152 0 -323.5 -18t-171.5 -59t14 -55.5t39 -14.5q45 0 192.5 18.5t171.5 18.5q-23 -29 -121 -100q-145 -106 -198 -150q-47 -37 -95.5 -74t-95.5 -71q-182 -139 -182 -183z" />
<glyph unicode="{" horiz-adv-x="643" d="M29 -18q-4 -35 25.5 -58.5t72.5 -23.5q16 0 43 1t66 3q41 2 69.5 3t46.5 1q57 0 90 11t33 38q0 35 -33 43h-32h-164q-55 0 -53 33q39 66 75.5 132t75.5 132q76 131 86 203q2 6 2 30q0 86 -86 134q98 12 143 38q45 29 86 92.5t70 161.5q57 193 82 228q35 47 66 55 q37 10 122 10q43 0 72 16.5t29 57.5q0 23 -33 30t-98 7h-39q-61 0 -110.5 -17.5t-92.5 -72.5q-41 -100 -84 -200.5t-84 -201.5q-27 -45 -86 -69q-14 -6 -36.5 -13.5t-57.5 -15.5q-35 -10 -68 -45q-33 -37 -37 -66q-6 -35 13 -61q4 -6 13 -16.5t26 -24.5q10 -8 20 -16.5 t21 -16.5q12 -10 12 -41q0 -41 -131 -260q-131 -217 -135 -241z" />
<glyph unicode="|" horiz-adv-x="573" d="M188 -10v-27q0 -31 7.5 -43t33.5 -12q47 0 66 51q2 6 24 102q16 84 32 149.5t28 115.5q10 39 25.5 102.5t37.5 153.5q27 111 51.5 208t47.5 183q57 217 86 313q4 16 12 41t20 59q29 99 29 130q0 16 -18.5 35.5t-34.5 17.5q-29 0 -51.5 -39t-38.5 -100 q-25 -88 -49.5 -175.5t-46.5 -175.5q-35 -133 -67 -255t-58 -234q-35 -147 -57.5 -240.5t-33.5 -134.5q-45 -193 -45 -225z" />
<glyph unicode="}" horiz-adv-x="643" d="M-31 -68q0 -23 30 -29.5t95 -6.5h39q66 0 103 14q57 20 100 76q41 98 84 196.5t84 198.5q27 43 86 74q39 20 91 35.5t77 33.5q37 27 37 70q0 35 -19 59q-4 4 -13 14.5t-26 24.5q-20 16 -36.5 29.5t-16.5 44.5q0 41 131 258q131 221 135 250q4 35 -25.5 58.5t-72.5 23.5 q-16 0 -43 -1t-68 -3q-39 -2 -67.5 -3t-46.5 -1q-57 0 -90 -11.5t-33 -38.5q0 -35 33 -43q4 -2 32 -2l164 -4q55 0 53 -32q-39 -68 -76.5 -134.5t-76.5 -132.5q-76 -135 -84 -200q-2 -6 -2 -25q0 -78 96 -127q-96 -12 -147 -45q-49 -33 -91.5 -97.5t-70.5 -162.5 q-57 -193 -82 -227q-35 -47 -66 -56q-37 -10 -123 -10q-43 0 -68.5 -13.5t-25.5 -54.5z" />
<glyph unicode="~" horiz-adv-x="1024" d="M389 1008q0 -27 20.5 -38.5t49.5 -11.5q63 0 210.5 66t145.5 66q25 0 47 -43q49 -96 92 -113q12 -4 33 -8t37 -4q39 0 64.5 16t25.5 53q0 33 -28.5 40.5t-69.5 17.5q-16 33 -33.5 63.5t-34.5 63.5q-37 53 -84 53q-37 0 -67 -15q-27 -14 -51.5 -26t-49.5 -25 q-45 -20 -71.5 -32.5t-36.5 -16.5q-35 -14 -63.5 -22.5t-49.5 -10.5q-86 -10 -86 -73z" />
<glyph unicode="&#xa6;" horiz-adv-x="778" d="M262 -92q0 -35 11.5 -52.5t45.5 -17.5q37 0 66 72q4 14 14.5 49t24.5 92q31 117 67.5 264.5t36.5 176.5q1 65 -32 65q-51 0 -80 -47q-16 -29 -31 -96q-4 -20 -16.5 -71.5t-34.5 -137.5q-72 -281 -72 -297zM430 737q0 -35 13.5 -56.5t48.5 -21.5t51 31q6 10 18 60 q27 98 52.5 200.5t54.5 208.5q57 209 57 246t-11 55.5t-44 18.5q-35 0 -97 -185q-45 -133 -98 -348q-45 -178 -45 -209z" />
<glyph unicode="&#xa8;" horiz-adv-x="860" d="M496 1184q0 -51 39 -78q27 -20 55 -21q35 0 58.5 17.5t23.5 56.5q0 33 -35 61.5t-68 28.5q-29 0 -51 -22.5t-22 -42.5zM807 1184q0 -37 26.5 -63.5t63.5 -26.5q29 0 55.5 22t26.5 45q0 35 -30.5 61.5t-59.5 26.5q-39 0 -60.5 -23.5t-21.5 -41.5z" />
<glyph unicode="&#xa9;" horiz-adv-x="1318" d="M213 498q0 -213 115 -389q129 -188 321 -189q186 0 332 96q119 84 236 263q43 68 72.5 130t49 123.5t27.5 125t8 135.5q0 190 -129 325t-303 135q-250 0 -485 -233q-244 -244 -244 -522zM352 549q0 201 195 391q193 190 403 190q135 0 211 -94t76 -266q0 -117 -21.5 -210 t-80.5 -191q-100 -164 -191 -238q-115 -94 -268 -94q-174 0 -258 170q-66 135 -66 342zM532 459q0 -59 33 -113q33 -55 82 -55q57 0 97 9t92 36q45 23 78.5 44t60.5 42q61 45 61 82q0 41 -53 41q-14 0 -118.5 -61.5t-139.5 -61.5q-41 0 -49 11t-8 42q0 78 65.5 180.5 t118.5 102.5q33 0 92 -33q20 -12 51 -12q27 0 38 18.5t11 46.5q0 43 -48 79t-119 36q-154 0 -259 -164q-86 -135 -86 -270z" />
<glyph unicode="&#xab;" horiz-adv-x="1331" d="M168 307q0 -49 74 -49q82 0 168 -68q39 -29 78.5 -64.5t84.5 -76.5q25 0 41.5 14.5t16.5 47.5q0 35 -16.5 64.5t-65.5 74.5q-37 31 -80 60.5t-84 49.5q10 8 29.5 21.5t48.5 34.5q39 29 67.5 49t47.5 35q45 33 90 65.5t92 65.5q92 67 92 94q0 23 -17.5 44.5t-35.5 21.5 q-35 0 -92 -39q-49 -33 -248 -187q-291 -223 -291 -258zM639 381q0 -45 31 -72q10 -10 27.5 -21.5t43.5 -25.5q33 -18 65 -36.5t64 -35.5q137 -76 187 -75q61 0 61 57q0 33 -22 51q-4 4 -60 35q-33 16 -64.5 31.5t-64.5 32.5q-84 41 -121 67q12 8 34 23.5t47.5 32t52 35 t51.5 32.5l164 94q27 16 39 27q22 22 22 47q0 70 -70 70q-25 0 -116 -62q-25 -16 -62 -41.5t-88 -60.5q-16 -10 -45 -29.5t-67 -46.5q-109 -78 -109 -129z" />
<glyph unicode="&#xac;" horiz-adv-x="1054" d="M250 578q0 -31 17.5 -52.5t47.5 -21.5q2 0 20.5 1l55.5 3q39 2 67.5 3t49.5 1q18 0 80.5 3t171.5 11q92 6 149 6q-12 -39 -19 -80.5t-5 -62.5q0 -82 39 -82q47 0 112 129q56 113 56 170q0 29 -13.5 47.5t-46.5 18.5q-39 0 -121 -3t-206.5 -11.5t-213 -11.5t-139.5 -3 q-41 0 -71.5 -13.5t-30.5 -51.5z" />
<glyph unicode="&#xad;" d="M227 442q0 -37 26 -51t105 -14q205 0 363 31q158 34 158 71q0 57 -131 58q-23 0 -72 -5.5t-127 -15.5q-31 -4 -55.5 -6t-40.5 -2q-106 0 -166 -17.5t-60 -48.5z" />
<glyph unicode="&#xae;" horiz-adv-x="1298" d="M213 498q0 -213 115 -389q129 -188 321 -189q186 0 332 96q119 84 236 263q43 68 72.5 130t49 123.5t27.5 125t8 135.5q0 190 -129 325t-303 135q-250 0 -485 -233q-244 -244 -244 -522zM352 549q0 201 195 391q193 190 403 190q135 0 211 -94t76 -266q0 -117 -21.5 -210 t-80.5 -191q-100 -164 -191 -238q-115 -94 -268 -94q-174 0 -258 170q-66 135 -66 342zM528 446q0 29 37 170q18 72 31.5 123.5t24.5 83.5q8 20 15 33.5t11 22.5q14 25 45 34t71 11t86 0t91 2q43 4 78 -17.5t35 -40.5q0 -59 -84 -147q-35 -35 -68 -60.5t-65 -42.5 q23 -29 45 -54t45 -60q23 -33 46 -65t17 -52q-8 -27 -32.5 -41t-47.5 -14q-27 0 -90 82q-33 41 -65.5 84t-67.5 86q-8 -18 -20 -133q-2 -41 -13 -58q-18 -45 -67 -45q-57 0 -58 98zM729 680q31 4 59.5 16t51.5 37q29 33 37 56.5t-5 25.5h-10t-16 2q-23 0 -44.5 -2t-39.5 -4z " />
<glyph unicode="&#xb0;" horiz-adv-x="997" d="M418 979q0 -70 38 -109t124 -39q164 0 364 179q174 155 174 223q0 57 -57 108q-49 43 -94 43q-197 0 -381 -153q-168 -137 -168 -252zM582 995q0 68 116 164q119 98 211 98q49 1 49 -32q0 -61 -139 -157.5t-207 -96.5q-31 0 -30 24z" />
<glyph unicode="&#xb1;" horiz-adv-x="1058" d="M115 -166q0 -33 12 -45t49 -12q10 0 40 4t77 12t84 12.5t61 4.5q100 10 200.5 22t201.5 23q51 4 81.5 8t41.5 6q61 12 61 39q0 66 -61 65q-31 0 -129.5 -9t-266.5 -25q-88 -10 -169 -17.5t-152 -13.5q-59 -4 -95 -17.5t-36 -56.5zM238 524q0 -49 49 -57q12 -2 131 12 q59 8 106 14.5t82 10.5q-35 -121 -67 -252q-35 -133 -35 -146q0 -43 10 -58t31 -15q53 0 112 153q29 82 55.5 164t55.5 166q66 6 133.5 12.5t132.5 14.5q158 23 158 80q0 45 -51 45l-213 -9q-23 0 -72 -6q-23 -2 -38 -3t-19 1q14 45 24.5 80t16.5 57q41 147 41 170 q0 31 -5.5 46.5t-31.5 15.5q-37 0 -82 -86t-107 -295l-297 -33q-70 -6 -95 -26.5t-25 -55.5z" />
<glyph unicode="&#xb4;" horiz-adv-x="753" d="M438 1102q0 -53 45 -53q33 0 101 86q98 125 123 149q68 68 151 129q100 69 100 98q0 41 -45 41q-121 0 -305 -194q-170 -182 -170 -256z" />
<glyph unicode="&#xb6;" horiz-adv-x="942" d="M205 -23q0 -39 24 -38q59 0 99 57q27 33 47 108l127 461q16 59 40.5 147.5t59.5 209.5q98 356 135 446q6 14 43 92q27 53 27 84q0 18 -23.5 33.5t-58.5 15.5q-111 0 -166 -16q-100 -31 -100 -123q0 -76 28.5 -113.5t73.5 -50.5q-4 -23 -25.5 -98.5t-58.5 -204.5 q-33 -117 -64.5 -227.5t-60.5 -218.5q-8 -29 -21.5 -84.5t-35.5 -139.5q-16 -59 -32.5 -119.5t-35.5 -123.5q-12 -35 -17 -54.5t-5 -42.5zM459 -23q0 -39 24 -38q59 0 99 57q27 33 47 108q33 125 63.5 250t63.5 252q10 41 31.5 113t54.5 178q37 119 80 258q16 57 30.5 103.5 t24.5 84.5q2 4 17.5 37t47.5 95q21 43 19 63q-6 29 -11.5 37t-17.5 10q-20 4 -54 -11t-48 -36q-39 -51 -99 -223q-25 -72 -52 -161t-58 -198q-29 -106 -57.5 -209.5t-57.5 -205.5q-16 -53 -29.5 -106.5t-27.5 -110.5q-16 -70 -32.5 -130.5t-33.5 -111.5q-10 -27 -17 -55.5 t-7 -49.5z" />
<glyph unicode="&#xb7;" horiz-adv-x="673" d="M387 653q0 -45 22.5 -83t59.5 -38q31 0 52.5 32t21.5 71q0 43 -12.5 67.5t-49.5 30.5q-39 6 -66.5 -19.5t-27.5 -60.5z" />
<glyph unicode="&#xb8;" horiz-adv-x="1138" d="M309 -307q0 -98 90 -146q61 -31 148 -30q117 0 219 141q102 139 102 299q0 74 -57 174q-59 102 -98 102q-78 0 -78 -69q16 -31 34.5 -61.5t37.5 -59.5q31 -47 30 -86q0 -100 -67 -201q-63 -100 -123 -100q-47 0 -80 16.5t-33 59.5q0 20 7.5 38.5t15.5 34t15 26.5t7 17 q2 12 -11 23.5t-34 11.5q-43 0 -78 -35q-47 -51 -47 -155z" />
<glyph unicode="&#xbb;" horiz-adv-x="1255" d="M217 98q0 -70 70 -69q25 0 116 61q25 16 62 42t88 61q16 10 45 29.5t68 45.5q109 78 108 129q0 43 -31 72q-10 10 -27.5 21.5t-43.5 25.5q-33 16 -65 34.5t-64 37.5q-137 76 -187 76q-61 0 -61 -58q0 -33 22 -51q2 -2 18.5 -11t45.5 -25.5t60.5 -31t64.5 -30.5 q84 -41 121 -68q-12 -8 -34 -23.5t-47.5 -32t-52 -34.5t-51.5 -33l-163 -94q-27 -16 -39 -27q-23 -22 -23 -47zM561 53q0 -23 17.5 -41t35.5 -18q35 0 93 33q49 33 247 186q291 223 291 258q0 49 -74 49q-82 0 -167 68q-39 29 -79 64.5t-85 76.5q-25 0 -41.5 -14.5 t-16.5 -46.5q0 -35 16.5 -65t65.5 -75q37 -31 80 -60.5t84 -49.5q-10 -8 -29.5 -21.5t-48.5 -34.5q-39 -29 -67.5 -49t-46.5 -34q-47 -33 -92.5 -66t-92.5 -68q-90 -65 -90 -92z" />
<glyph unicode="&#xc0;" horiz-adv-x="1320" d="M-37 29q0 -27 29 -43q8 -8 18 -9q29 0 64 23q4 0 100 98q98 104 178 211q41 55 89 121t106 143q12 -18 21.5 -28t18.5 -14.5t20 -5.5t30 -1q86 0 242 54q66 23 125 48t112 54q-35 -100 -70.5 -190.5t-76.5 -176.5q-59 -121 -135 -252q-39 -25 -67 -51t-28 -37 q0 -33 18.5 -57.5t43.5 -24.5q59 0 213 187q156 186 155 237q0 37 -16 66t-16 33q23 51 39 89t26 64q35 82 57.5 132.5t32.5 70.5q74 27 127.5 49.5t85.5 38.5q148 76 148 146q0 10 -14.5 17t-30.5 7q-18 0 -129 -41q-106 -39 -113 -37q14 33 37 142q20 102 20 141 q0 80 -25.5 124t-72.5 44q-68 0 -186 -84q-47 -35 -101.5 -80t-113.5 -102q-47 -47 -95.5 -94.5t-95.5 -94.5q-6 12 -16 65.5t-35 53.5q-27 0 -78 -92q-59 -104 -114.5 -198.5t-108.5 -180.5q-16 -27 -58 -78t-108 -129q-35 -41 -89 -101.5t-126 -142.5q-37 -53 -37 -114z M645 680q135 150 350 362q238 236 277 236q18 0 25 -25.5t3 -52.5q-4 -33 -13 -66.5t-21 -70.5q-35 -109 -92 -232q-82 -35 -151 -62.5t-124 -43.5q-141 -45 -231 -45h-23zM1212 1819q0 -150 117 -266q90 -90 137 -90q31 0 50 28q12 18 12 41q0 35 -43 60q-61 35 -101 129 q-10 43 -21 86t-22 88q-10 31 -47 30q-33 0 -57.5 -41t-24.5 -65z" />
<glyph unicode="&#xc1;" horiz-adv-x="1320" d="M-37 29q0 -27 29 -43q8 -8 18 -9q29 0 64 23q4 0 100 98q98 104 178 211q41 55 89 121t106 143q12 -18 21.5 -28t18.5 -14.5t20 -5.5t30 -1q86 0 242 54q66 23 125 48t112 54q-35 -100 -70.5 -190.5t-76.5 -176.5q-59 -121 -135 -252q-39 -25 -67 -51t-28 -37 q0 -33 18.5 -57.5t43.5 -24.5q59 0 213 187q156 186 155 237q0 37 -16 66t-16 33q23 51 39 89t26 64q35 82 57.5 132.5t32.5 70.5q74 27 127.5 49.5t85.5 38.5q148 76 148 146q0 10 -14.5 17t-30.5 7q-18 0 -129 -41q-106 -39 -113 -37q14 33 37 142q20 102 20 141 q0 80 -25.5 124t-72.5 44q-68 0 -186 -84q-47 -35 -101.5 -80t-113.5 -102q-47 -47 -95.5 -94.5t-95.5 -94.5q-6 12 -16 65.5t-35 53.5q-27 0 -78 -92q-59 -104 -114.5 -198.5t-108.5 -180.5q-16 -27 -58 -78t-108 -129q-35 -41 -89 -101.5t-126 -142.5q-37 -53 -37 -114z M645 680q135 150 350 362q238 236 277 236q18 0 25 -25.5t3 -52.5q-4 -33 -13 -66.5t-21 -70.5q-35 -109 -92 -232q-82 -35 -151 -62.5t-124 -43.5q-141 -45 -231 -45h-23zM1263 1532q0 -53 45 -53q33 0 101 86q98 125 123 149q68 68 151 129q100 69 100 98q0 41 -45 41 q-121 0 -305 -194q-170 -182 -170 -256z" />
<glyph unicode="&#xc2;" horiz-adv-x="1320" d="M-37 29q0 -27 29 -43q8 -8 18 -9q29 0 64 23q4 0 100 98q98 104 178 211q41 55 89 121t106 143q12 -18 21.5 -28t18.5 -14.5t20 -5.5t30 -1q86 0 242 54q66 23 125 48t112 54q-35 -100 -70.5 -190.5t-76.5 -176.5q-59 -121 -135 -252q-39 -25 -67 -51t-28 -37 q0 -33 18.5 -57.5t43.5 -24.5q59 0 213 187q156 186 155 237q0 37 -16 66t-16 33q23 51 39 89t26 64q35 82 57.5 132.5t32.5 70.5q74 27 127.5 49.5t85.5 38.5q148 76 148 146q0 10 -14.5 17t-30.5 7q-18 0 -129 -41q-106 -39 -113 -37q14 33 37 142q20 102 20 141 q0 80 -25.5 124t-72.5 44q-68 0 -186 -84q-47 -35 -101.5 -80t-113.5 -102q-47 -47 -95.5 -94.5t-95.5 -94.5q-6 12 -16 65.5t-35 53.5q-27 0 -78 -92q-59 -104 -114.5 -198.5t-108.5 -180.5q-16 -27 -58 -78t-108 -129q-35 -41 -89 -101.5t-126 -142.5q-37 -53 -37 -114z M645 680q135 150 350 362q238 236 277 236q18 0 25 -25.5t3 -52.5q-4 -33 -13 -66.5t-21 -70.5q-35 -109 -92 -232q-82 -35 -151 -62.5t-124 -43.5q-141 -45 -231 -45h-23zM993 1507q0 -18 15.5 -39.5t30.5 -21.5q63 0 196 102q70 51 184 148q23 -47 42.5 -90t35.5 -82 q61 -135 94 -136q31 0 58.5 23.5t27.5 46.5q0 49 -57 137q-35 51 -49 86q-29 61 -33 138q-4 74 -41 73q-31 0 -106 -67q-100 -90 -144 -117q-55 -37 -101 -69.5t-80 -58.5t-53.5 -45.5t-19.5 -27.5z" />
<glyph unicode="&#xc3;" horiz-adv-x="1320" d="M-37 29q0 -27 29 -43q8 -8 18 -9q29 0 64 23q4 0 100 98q98 104 178 211q41 55 89 121t106 143q12 -18 21.5 -28t18.5 -14.5t20 -5.5t30 -1q86 0 242 54q66 23 125 48t112 54q-35 -100 -70.5 -190.5t-76.5 -176.5q-59 -121 -135 -252q-39 -25 -67 -51t-28 -37 q0 -33 18.5 -57.5t43.5 -24.5q59 0 213 187q156 186 155 237q0 37 -16 66t-16 33q23 51 39 89t26 64q35 82 57.5 132.5t32.5 70.5q74 27 127.5 49.5t85.5 38.5q148 76 148 146q0 10 -14.5 17t-30.5 7q-18 0 -129 -41q-106 -39 -113 -37q14 33 37 142q20 102 20 141 q0 80 -25.5 124t-72.5 44q-68 0 -186 -84q-47 -35 -101.5 -80t-113.5 -102q-47 -47 -95.5 -94.5t-95.5 -94.5q-6 12 -16 65.5t-35 53.5q-27 0 -78 -92q-59 -104 -114.5 -198.5t-108.5 -180.5q-16 -27 -58 -78t-108 -129q-35 -41 -89 -101.5t-126 -142.5q-37 -53 -37 -114z M645 680q135 150 350 362q238 236 277 236q18 0 25 -25.5t3 -52.5q-4 -33 -13 -66.5t-21 -70.5q-35 -109 -92 -232q-82 -35 -151 -62.5t-124 -43.5q-141 -45 -231 -45h-23zM962 1532q0 -27 20.5 -38.5t49.5 -11.5q63 0 210.5 66t145.5 66q25 0 47 -43q49 -96 92 -113 q12 -4 33 -8t37 -4q39 0 64.5 16t25.5 53q0 33 -28.5 40.5t-69.5 17.5q-16 33 -33.5 63.5t-34.5 63.5q-37 53 -84 53q-37 0 -67 -15q-27 -14 -51.5 -26t-49.5 -25q-45 -20 -71.5 -32.5t-36.5 -16.5q-35 -14 -63.5 -22.5t-49.5 -10.5q-86 -10 -86 -73z" />
<glyph unicode="&#xc4;" horiz-adv-x="1320" d="M-37 29q0 -27 29 -43q8 -8 18 -9q29 0 64 23q4 0 100 98q98 104 178 211q41 55 89 121t106 143q12 -18 21.5 -28t18.5 -14.5t20 -5.5t30 -1q86 0 242 54q66 23 125 48t112 54q-35 -100 -70.5 -190.5t-76.5 -176.5q-59 -121 -135 -252q-39 -25 -67 -51t-28 -37 q0 -33 18.5 -57.5t43.5 -24.5q59 0 213 187q156 186 155 237q0 37 -16 66t-16 33q23 51 39 89t26 64q35 82 57.5 132.5t32.5 70.5q74 27 127.5 49.5t85.5 38.5q148 76 148 146q0 10 -14.5 17t-30.5 7q-18 0 -129 -41q-106 -39 -113 -37q14 33 37 142q20 102 20 141 q0 80 -25.5 124t-72.5 44q-68 0 -186 -84q-47 -35 -101.5 -80t-113.5 -102q-47 -47 -95.5 -94.5t-95.5 -94.5q-6 12 -16 65.5t-35 53.5q-27 0 -78 -92q-59 -104 -114.5 -198.5t-108.5 -180.5q-16 -27 -58 -78t-108 -129q-35 -41 -89 -101.5t-126 -142.5q-37 -53 -37 -114z M645 680q135 150 350 362q238 236 277 236q18 0 25 -25.5t3 -52.5q-4 -33 -13 -66.5t-21 -70.5q-35 -109 -92 -232q-82 -35 -151 -62.5t-124 -43.5q-141 -45 -231 -45h-23zM1135 1651q0 -51 39 -78q27 -20 55 -21q35 0 58.5 17.5t23.5 56.5q0 33 -35 61.5t-68 28.5 q-29 0 -51 -22.5t-22 -42.5zM1446 1651q0 -37 26.5 -63.5t63.5 -26.5q29 0 55.5 22t26.5 45q0 35 -30.5 61.5t-59.5 26.5q-39 0 -60.5 -23.5t-21.5 -41.5z" />
<glyph unicode="&#xc7;" horiz-adv-x="993" d="M-20 -324q0 -98 83 -145q61 -31 148 -31q117 0 219 142q102 139 102 299q0 2 -2 27.5t-8 37.5q29 8 64 21.5t68.5 27t65.5 26.5t54 25q135 70 209 111q176 102 176 156q0 23 -33 22q-6 0 -22 -4q-63 -33 -127 -63.5t-127 -61.5q-117 -53 -211 -90t-168 -53 q-25 43 -50.5 68.5t-43.5 25.5q-78 0 -78 -70q0 -10 16 -38q-131 20 -131 182q0 152 41 274q35 98 123 250q41 72 92.5 137.5t114.5 124.5q125 123 186 123t62 -65q0 -43 -37 -119q-37 -78 -37 -103q0 -18 16.5 -41.5t49.5 -23.5q45 0 129 141q84 143 84 195q0 33 -17.5 48 t-68.5 25q-29 43 -72 60.5t-76 17.5q-119 0 -270 -133q-139 -123 -258 -313q-100 -160 -150.5 -314.5t-50.5 -320.5q0 -139 55 -201q72 -72 256 -71l37 2q8 -16 8 -43q0 -100 -67 -201q-63 -100 -123 -100q-47 0 -80 16t-33 59q0 20 7.5 39t15.5 34t15 26.5t7 17.5 q2 12 -11 23.5t-34 11.5q-43 0 -78 -35q-41 -51 -40 -156z" />
<glyph unicode="&#xc8;" horiz-adv-x="978" d="M23 90q0 -66 94 -98q61 -27 123 -27q96 0 241 37q57 16 104.5 33.5t88.5 38.5q92 35 182 67.5t182 67.5q57 25 58 65q0 35 -21.5 44.5t-60.5 9.5q-20 0 -197 -70q-53 -20 -101 -38.5t-93 -35.5q-135 -47 -231.5 -74.5t-123.5 -23.5q-33 4 -56.5 18.5t-25.5 38.5 q0 14 -2 25q0 37 35 123q23 57 66 142t104 202q57 109 115 188q23 33 45 60.5t43 50.5q12 25 15 36t3 38t-6 69q168 0 402 76q237 78 237 129q0 37 -61 37q-55 0 -267 -49q-213 -49 -229 -49h-22q-10 0 -25 2q-82 0 -109 -37q-20 -27 -20 -88q-29 -49 -59.5 -98.5 t-59.5 -96.5q-23 -39 -48.5 -83t-51.5 -95q-123 -231 -197 -406q-72 -178 -71 -229zM461 582q0 -29 20.5 -51.5t48.5 -22.5q90 0 261 96q57 33 98 54.5t69 33.5q29 10 60 20.5t59 20.5q60 25 60 74q0 12 -18.5 30.5t-39.5 18.5q-59 0 -231 -92t-248 -92h-18t-29 2 q-41 0 -66.5 -18.5t-25.5 -73.5zM688 1778q0 -150 117 -266q90 -90 137 -90q31 0 50 28q12 18 12 41q0 35 -43 60q-61 35 -101 129q-10 43 -21 86t-22 88q-10 31 -47 30q-33 0 -57.5 -41t-24.5 -65z" />
<glyph unicode="&#xc9;" horiz-adv-x="978" d="M23 90q0 -66 94 -98q61 -27 123 -27q96 0 241 37q57 16 104.5 33.5t88.5 38.5q92 35 182 67.5t182 67.5q57 25 58 65q0 35 -21.5 44.5t-60.5 9.5q-20 0 -197 -70q-53 -20 -101 -38.5t-93 -35.5q-135 -47 -231.5 -74.5t-123.5 -23.5q-33 4 -56.5 18.5t-25.5 38.5 q0 14 -2 25q0 37 35 123q23 57 66 142t104 202q57 109 115 188q23 33 45 60.5t43 50.5q12 25 15 36t3 38t-6 69q168 0 402 76q237 78 237 129q0 37 -61 37q-55 0 -267 -49q-213 -49 -229 -49h-22q-10 0 -25 2q-82 0 -109 -37q-20 -27 -20 -88q-29 -49 -59.5 -98.5 t-59.5 -96.5q-23 -39 -48.5 -83t-51.5 -95q-123 -231 -197 -406q-72 -178 -71 -229zM461 582q0 -29 20.5 -51.5t48.5 -22.5q90 0 261 96q57 33 98 54.5t69 33.5q29 10 60 20.5t59 20.5q60 25 60 74q0 12 -18.5 30.5t-39.5 18.5q-59 0 -231 -92t-248 -92h-18t-29 2 q-41 0 -66.5 -18.5t-25.5 -73.5zM757 1413q0 -53 45 -53q33 0 101 86q98 125 123 149q68 68 151 129q100 69 100 98q0 41 -45 41q-121 0 -305 -194q-170 -182 -170 -256z" />
<glyph unicode="&#xca;" horiz-adv-x="978" d="M23 90q0 -66 94 -98q61 -27 123 -27q96 0 241 37q57 16 104.5 33.5t88.5 38.5q92 35 182 67.5t182 67.5q57 25 58 65q0 35 -21.5 44.5t-60.5 9.5q-20 0 -197 -70q-53 -20 -101 -38.5t-93 -35.5q-135 -47 -231.5 -74.5t-123.5 -23.5q-33 4 -56.5 18.5t-25.5 38.5 q0 14 -2 25q0 37 35 123q23 57 66 142t104 202q57 109 115 188q23 33 45 60.5t43 50.5q12 25 15 36t3 38t-6 69q168 0 402 76q237 78 237 129q0 37 -61 37q-55 0 -267 -49q-213 -49 -229 -49h-22q-10 0 -25 2q-82 0 -109 -37q-20 -27 -20 -88q-29 -49 -59.5 -98.5 t-59.5 -96.5q-23 -39 -48.5 -83t-51.5 -95q-123 -231 -197 -406q-72 -178 -71 -229zM461 582q0 -29 20.5 -51.5t48.5 -22.5q90 0 261 96q57 33 98 54.5t69 33.5q29 10 60 20.5t59 20.5q60 25 60 74q0 12 -18.5 30.5t-39.5 18.5q-59 0 -231 -92t-248 -92h-18t-29 2 q-41 0 -66.5 -18.5t-25.5 -73.5zM684 1536q0 -18 15.5 -39.5t30.5 -21.5q63 0 196 102q70 51 184 148q23 -47 42.5 -90t35.5 -82q61 -135 94 -136q31 0 58.5 23.5t27.5 46.5q0 49 -57 137q-35 51 -49 86q-29 61 -33 138q-4 74 -41 73q-31 0 -106 -67q-100 -90 -144 -117 q-55 -37 -101 -69.5t-80 -58.5t-53.5 -45.5t-19.5 -27.5z" />
<glyph unicode="&#xcb;" horiz-adv-x="978" d="M23 90q0 -66 94 -98q61 -27 123 -27q96 0 241 37q57 16 104.5 33.5t88.5 38.5q92 35 182 67.5t182 67.5q57 25 58 65q0 35 -21.5 44.5t-60.5 9.5q-20 0 -197 -70q-53 -20 -101 -38.5t-93 -35.5q-135 -47 -231.5 -74.5t-123.5 -23.5q-33 4 -56.5 18.5t-25.5 38.5 q0 14 -2 25q0 37 35 123q23 57 66 142t104 202q57 109 115 188q23 33 45 60.5t43 50.5q12 25 15 36t3 38t-6 69q168 0 402 76q237 78 237 129q0 37 -61 37q-55 0 -267 -49q-213 -49 -229 -49h-22q-10 0 -25 2q-82 0 -109 -37q-20 -27 -20 -88q-29 -49 -59.5 -98.5 t-59.5 -96.5q-23 -39 -48.5 -83t-51.5 -95q-123 -231 -197 -406q-72 -178 -71 -229zM461 582q0 -29 20.5 -51.5t48.5 -22.5q90 0 261 96q57 33 98 54.5t69 33.5q29 10 60 20.5t59 20.5q60 25 60 74q0 12 -18.5 30.5t-39.5 18.5q-59 0 -231 -92t-248 -92h-18t-29 2 q-41 0 -66.5 -18.5t-25.5 -73.5zM750 1602q0 -51 39 -78q27 -20 55 -21q35 0 58.5 17.5t23.5 56.5q0 33 -35 61.5t-68 28.5q-29 0 -51 -22.5t-22 -42.5zM1061 1602q0 -37 26.5 -63.5t63.5 -26.5q29 0 55.5 22t26.5 45q0 35 -30.5 61.5t-59.5 26.5q-39 0 -60.5 -23.5 t-21.5 -41.5z" />
<glyph unicode="&#xcc;" horiz-adv-x="657" d="M29 88q0 -35 15 -53.5t40 -18.5q23 0 88 121q39 74 135 277q104 217 148 301q12 23 46 84t89 164q139 256 139 270t-19.5 31.5t-29.5 17.5q-47 0 -184 -235q-33 -57 -66 -113.5t-65 -114.5q-106 -180 -228 -452q-109 -246 -108 -279zM573 1725q0 -150 117 -266 q90 -90 137 -90q31 0 50 28q12 18 12 41q0 35 -43 60q-61 35 -101 129q-10 43 -21 86t-22 88q-10 31 -47 30q-33 0 -57.5 -41t-24.5 -65z" />
<glyph unicode="&#xcd;" horiz-adv-x="657" d="M29 88q0 -35 15 -53.5t40 -18.5q23 0 88 121q39 74 135 277q104 217 148 301q12 23 46 84t89 164q139 256 139 270t-19.5 31.5t-29.5 17.5q-47 0 -184 -235q-33 -57 -66 -113.5t-65 -114.5q-106 -180 -228 -452q-109 -246 -108 -279zM684 1434q0 -53 45 -53q33 0 101 86 q98 125 123 149q68 68 151 129q100 69 100 98q0 41 -45 41q-121 0 -305 -194q-170 -182 -170 -256z" />
<glyph unicode="&#xce;" horiz-adv-x="657" d="M29 88q0 -35 15 -53.5t40 -18.5q23 0 88 121q39 74 135 277q104 217 148 301q12 23 46 84t89 164q139 256 139 270t-19.5 31.5t-29.5 17.5q-47 0 -184 -235q-33 -57 -66 -113.5t-65 -114.5q-106 -180 -228 -452q-109 -246 -108 -279zM393 1376q0 -18 15.5 -39.5 t30.5 -21.5q63 0 196 102q70 51 184 148q23 -47 42.5 -90t35.5 -82q61 -135 94 -136q31 0 58.5 23.5t27.5 46.5q0 49 -57 137q-35 51 -49 86q-29 61 -33 138q-4 74 -41 73q-31 0 -106 -67q-100 -90 -144 -117q-55 -37 -101 -69.5t-80 -58.5t-53.5 -45.5t-19.5 -27.5z" />
<glyph unicode="&#xcf;" horiz-adv-x="657" d="M29 88q0 -35 15 -53.5t40 -18.5q23 0 88 121q39 74 135 277q104 217 148 301q12 23 46 84t89 164q139 256 139 270t-19.5 31.5t-29.5 17.5q-47 0 -184 -235q-33 -57 -66 -113.5t-65 -114.5q-106 -180 -228 -452q-109 -246 -108 -279zM500 1497q0 -51 39 -78 q27 -20 55 -21q35 0 58.5 17.5t23.5 56.5q0 33 -35 61.5t-68 28.5q-29 0 -51 -22.5t-22 -42.5zM811 1497q0 -37 26.5 -63.5t63.5 -26.5q29 0 55.5 22t26.5 45q0 35 -30.5 61.5t-59.5 26.5q-39 0 -60.5 -23.5t-21.5 -41.5z" />
<glyph unicode="&#xd1;" horiz-adv-x="1157" d="M-8 74q0 -76 57 -76q33 0 137 176q41 70 91.5 166t111.5 219q37 74 79 160t89 186q10 -78 21.5 -154.5t21.5 -154.5q18 -125 36.5 -218t35.5 -157q51 -180 108 -180q33 0 109 137q20 35 58 109.5t97 191.5q53 106 92.5 181t63.5 118q16 29 74.5 116t159.5 232 q63 93 61 111q0 20 -12.5 34.5t-34.5 14.5q-39 0 -96 -63q-49 -55 -117 -156q-23 -35 -53.5 -83t-67.5 -107q-49 -78 -95 -159t-91 -165q-41 -76 -72 -138.5t-53 -115.5q-20 96 -33.5 171t-24.5 130q-20 119 -30 205t-10 141v35q0 33 2 96.5t2 106.5v69q0 39 -9 54 q-16 25 -57 24q-39 0 -117 -170q-145 -330 -239 -504q-47 -86 -93.5 -170t-93.5 -170q-109 -213 -108 -243zM741 1473q0 -27 20.5 -38.5t49.5 -11.5q63 0 210.5 66t145.5 66q25 0 47 -43q49 -96 92 -113q12 -4 33 -8t37 -4q39 0 64.5 16t25.5 53q0 33 -28.5 40.5t-69.5 17.5 q-16 33 -33.5 63.5t-34.5 63.5q-37 53 -84 53q-37 0 -67 -15q-27 -14 -51.5 -26t-49.5 -25q-45 -20 -71.5 -32.5t-36.5 -16.5q-35 -14 -63.5 -22.5t-49.5 -10.5q-86 -10 -86 -73z" />
<glyph unicode="&#xd2;" horiz-adv-x="1044" d="M47 250q0 -94 42 -157.5t130 -63.5q111 0 373 170q260 168 455 374q221 236 221 394q0 100 -97 225q-96 123 -194 123q-25 25 -29 26q-16 10 -37 11q-180 0 -401 -242q-182 -201 -328 -483q-135 -262 -135 -377zM190 242q0 76 99 288q51 106 107.5 203.5t121.5 186.5 q150 205 270 235q-10 -16 -19 -27.5t-13 -19.5q-33 -47 -33 -61q0 -25 32.5 -33t96.5 55q39 39 100 119q70 0 133 -94q56 -80 56 -131q0 -104 -127 -254q-43 -51 -102.5 -106.5t-137.5 -119.5q-35 -27 -68.5 -53.5t-68.5 -52.5q-39 -35 -82 -68t-94 -61q-127 -76 -213 -76 q-23 0 -40.5 21.5t-17.5 48.5zM802 1776q0 -150 117 -266q90 -90 137 -90q31 0 50 28q12 18 12 41q0 35 -43 60q-61 35 -101 129q-10 43 -21 86t-22 88q-10 31 -47 30q-33 0 -57.5 -41t-24.5 -65z" />
<glyph unicode="&#xd3;" horiz-adv-x="1044" d="M47 250q0 -94 42 -157.5t130 -63.5q111 0 373 170q260 168 455 374q221 236 221 394q0 100 -97 225q-96 123 -194 123q-25 25 -29 26q-16 10 -37 11q-180 0 -401 -242q-182 -201 -328 -483q-135 -262 -135 -377zM190 242q0 76 99 288q51 106 107.5 203.5t121.5 186.5 q150 205 270 235q-10 -16 -19 -27.5t-13 -19.5q-33 -47 -33 -61q0 -25 32.5 -33t96.5 55q39 39 100 119q70 0 133 -94q56 -80 56 -131q0 -104 -127 -254q-43 -51 -102.5 -106.5t-137.5 -119.5q-35 -27 -68.5 -53.5t-68.5 -52.5q-39 -35 -82 -68t-94 -61q-127 -76 -213 -76 q-23 0 -40.5 21.5t-17.5 48.5zM923 1518q0 -53 45 -53q33 0 101 86q98 125 123 149q68 68 151 129q100 69 100 98q0 41 -45 41q-121 0 -305 -194q-170 -182 -170 -256z" />
<glyph unicode="&#xd4;" horiz-adv-x="1044" d="M47 250q0 -94 42 -157.5t130 -63.5q111 0 373 170q260 168 455 374q221 236 221 394q0 100 -97 225q-96 123 -194 123q-25 25 -29 26q-16 10 -37 11q-180 0 -401 -242q-182 -201 -328 -483q-135 -262 -135 -377zM190 242q0 76 99 288q51 106 107.5 203.5t121.5 186.5 q150 205 270 235q-10 -16 -19 -27.5t-13 -19.5q-33 -47 -33 -61q0 -25 32.5 -33t96.5 55q39 39 100 119q70 0 133 -94q56 -80 56 -131q0 -104 -127 -254q-43 -51 -102.5 -106.5t-137.5 -119.5q-35 -27 -68.5 -53.5t-68.5 -52.5q-39 -35 -82 -68t-94 -61q-127 -76 -213 -76 q-23 0 -40.5 21.5t-17.5 48.5zM575 1446q0 -18 15.5 -39.5t30.5 -21.5q63 0 196 102q70 51 184 148q23 -47 42.5 -90t35.5 -82q61 -135 94 -136q31 0 58.5 23.5t27.5 46.5q0 49 -57 137q-35 51 -49 86q-29 61 -33 138q-4 74 -41 73q-31 0 -106 -67q-100 -90 -144 -117 q-55 -37 -101 -69.5t-80 -58.5t-53.5 -45.5t-19.5 -27.5z" />
<glyph unicode="&#xd5;" d="M47 250q0 -94 42 -157.5t130 -63.5q111 0 373 170q260 168 455 374q221 236 221 394q0 100 -97 225q-96 123 -194 123q-25 25 -29 26q-16 10 -37 11q-180 0 -401 -242q-182 -201 -328 -483q-135 -262 -135 -377zM190 242q0 76 99 288q51 106 107.5 203.5t121.5 186.5 q150 205 270 235q-10 -16 -19 -27.5t-13 -19.5q-33 -47 -33 -61q0 -25 32.5 -33t96.5 55q39 39 100 119q70 0 133 -94q56 -80 56 -131q0 -104 -127 -254q-43 -51 -102.5 -106.5t-137.5 -119.5q-35 -27 -68.5 -53.5t-68.5 -52.5q-39 -35 -82 -68t-94 -61q-127 -76 -213 -76 q-23 0 -40.5 21.5t-17.5 48.5zM596 1489q0 -27 20.5 -38.5t49.5 -11.5q63 0 210.5 66t145.5 66q25 0 47 -43q49 -96 92 -113q12 -4 33 -8t37 -4q39 0 64.5 16t25.5 53q0 33 -28.5 40.5t-69.5 17.5q-16 33 -33.5 63.5t-34.5 63.5q-37 53 -84 53q-37 0 -67 -15 q-27 -14 -51.5 -26t-49.5 -25q-45 -20 -71.5 -32.5t-36.5 -16.5q-35 -14 -63.5 -22.5t-49.5 -10.5q-86 -10 -86 -73z" />
<glyph unicode="&#xd6;" horiz-adv-x="1075" d="M47 250q0 -94 42 -157.5t130 -63.5q111 0 373 170q260 168 455 374q221 236 221 394q0 100 -97 225q-96 123 -194 123q-25 25 -29 26q-16 10 -37 11q-180 0 -401 -242q-182 -201 -328 -483q-135 -262 -135 -377zM190 242q0 76 99 288q51 106 107.5 203.5t121.5 186.5 q150 205 270 235q-10 -16 -19 -27.5t-13 -19.5q-33 -47 -33 -61q0 -25 32.5 -33t96.5 55q39 39 100 119q70 0 133 -94q56 -80 56 -131q0 -104 -127 -254q-43 -51 -102.5 -106.5t-137.5 -119.5q-35 -27 -68.5 -53.5t-68.5 -52.5q-39 -35 -82 -68t-94 -61q-127 -76 -213 -76 q-23 0 -40.5 21.5t-17.5 48.5zM795 1630q0 -51 39 -78q27 -20 55 -21q35 0 58.5 17.5t23.5 56.5q0 33 -35 61.5t-68 28.5q-29 0 -51 -22.5t-22 -42.5zM1106 1630q0 -37 26.5 -63.5t63.5 -26.5q29 0 55.5 22t26.5 45q0 35 -30.5 61.5t-59.5 26.5q-39 0 -60.5 -23.5 t-21.5 -41.5z" />
<glyph unicode="&#xd7;" horiz-adv-x="1036" d="M279 143q0 -43 40 -43q49 0 132 113q63 86 97 130t40 52q8 -41 18 -98q2 -23 6 -55q0 -43 12.5 -76t55.5 -33q66 0 74 76q0 82 -10.5 170t-26.5 174q29 33 62.5 68.5t72.5 76.5q182 195 182 199q0 49 -47 49q-68 0 -162 -94q-57 -57 -133 -162q-16 37 -24.5 58.5 t-12.5 29.5q-33 70 -86 70q-20 0 -45.5 -17.5t-27.5 -44.5q0 -18 34 -122q20 -61 31 -105q-39 -47 -77 -94t-72 -94q-86 -113 -109 -152q-25 -41 -24 -76z" />
<glyph unicode="&#xd8;" horiz-adv-x="1126" d="M-143 158q0 -35 18.5 -49.5t63.5 -14.5q72 0 137 103q82 127 123 155q16 -92 26.5 -141t14.5 -59q45 -125 166 -125q100 0 282 153q66 57 126 117.5t114 126.5q41 51 84 100t86 101q39 51 68.5 99t49 97t28.5 103.5t9 119.5q8 4 86 48.5t230 126.5q211 112 211 165 q0 39 -9.5 46.5t-39.5 7.5q-29 0 -265 -129q-233 -127 -303 -179q-90 82 -139 113q-78 49 -141 49q-215 0 -365 -129q-133 -115 -227 -336q-33 -76 -51.5 -150.5t-36.5 -166.5q-20 -16 -66.5 -55t-122.5 -103q-158 -135 -157 -194zM330 455q78 45 139 90q8 4 60.5 41 t150.5 106.5t172 119.5t123 79q29 16 59.5 34.5t65.5 39.5q4 -12 8 -26t4 -24q0 -45 -94 -188q-47 -72 -94 -134.5t-99 -115.5q-49 -53 -147 -160q-145 -145 -254 -145q-53 0 -73.5 77t-20.5 206zM375 649q37 186 151 314q133 145 326 145q27 0 82 -27q29 -12 45 -18t20 -8 q-102 -70 -202.5 -137.5t-202.5 -137.5q-88 -57 -142.5 -90t-76.5 -41z" />
<glyph unicode="&#xd9;" horiz-adv-x="983" d="M35 127q0 -80 52 -125t128 -45q133 0 307 109q129 86 260 223q35 37 69 77t69 80q86 111 151.5 210.5t112.5 193.5q112 223 112 399q0 37 -18 63.5t-47 26.5q-80 0 -80 -69q0 -20 3 -43t3 -33q0 -41 -16 -96q-4 -18 -25 -70q-41 -117 -112.5 -243t-157.5 -232 q-145 -178 -301 -309q-182 -154 -285 -154q-55 0 -74.5 24.5t-19.5 69.5q0 59 37 189q18 66 39.5 131t46.5 131q39 100 86 194q49 98 78 134q23 10 46 19t46 19q35 29 35 80q0 33 -20.5 47.5t-53.5 14.5q-102 0 -209 -187q-35 -59 -67.5 -131.5t-65.5 -165.5 q-23 -66 -45.5 -138t-42.5 -154q-41 -168 -41 -240zM639 1710q0 -150 117 -266q90 -90 137 -90q31 0 50 28q12 18 12 41q0 35 -43 60q-61 35 -101 129q-10 43 -21 86t-22 88q-10 31 -47 30q-33 0 -57.5 -41t-24.5 -65z" />
<glyph unicode="&#xda;" horiz-adv-x="983" d="M35 127q0 -80 52 -125t128 -45q133 0 307 109q129 86 260 223q35 37 69 77t69 80q86 111 151.5 210.5t112.5 193.5q112 223 112 399q0 37 -18 63.5t-47 26.5q-80 0 -80 -69q0 -20 3 -43t3 -33q0 -41 -16 -96q-4 -18 -25 -70q-41 -117 -112.5 -243t-157.5 -232 q-145 -178 -301 -309q-182 -154 -285 -154q-55 0 -74.5 24.5t-19.5 69.5q0 59 37 189q18 66 39.5 131t46.5 131q39 100 86 194q49 98 78 134q23 10 46 19t46 19q35 29 35 80q0 33 -20.5 47.5t-53.5 14.5q-102 0 -209 -187q-35 -59 -67.5 -131.5t-65.5 -165.5 q-23 -66 -45.5 -138t-42.5 -154q-41 -168 -41 -240zM766 1401q0 -53 45 -53q33 0 101 86q98 125 123 149q68 68 151 129q100 69 100 98q0 41 -45 41q-121 0 -305 -194q-170 -182 -170 -256z" />
<glyph unicode="&#xdb;" horiz-adv-x="983" d="M35 127q0 -80 52 -125t128 -45q133 0 307 109q129 86 260 223q35 37 69 77t69 80q86 111 151.5 210.5t112.5 193.5q112 223 112 399q0 37 -18 63.5t-47 26.5q-80 0 -80 -69q0 -20 3 -43t3 -33q0 -41 -16 -96q-4 -18 -25 -70q-41 -117 -112.5 -243t-157.5 -232 q-145 -178 -301 -309q-182 -154 -285 -154q-55 0 -74.5 24.5t-19.5 69.5q0 59 37 189q18 66 39.5 131t46.5 131q39 100 86 194q49 98 78 134q23 10 46 19t46 19q35 29 35 80q0 33 -20.5 47.5t-53.5 14.5q-102 0 -209 -187q-35 -59 -67.5 -131.5t-65.5 -165.5 q-23 -66 -45.5 -138t-42.5 -154q-41 -168 -41 -240zM462 1493q0 -18 15.5 -39.5t30.5 -21.5q63 0 196 102q70 51 184 148q23 -47 42.5 -90t35.5 -82q61 -135 94 -136q31 0 58.5 23.5t27.5 46.5q0 49 -57 137q-35 51 -49 86q-29 61 -33 138q-4 74 -41 73q-31 0 -106 -67 q-100 -90 -144 -117q-55 -37 -101 -69.5t-80 -58.5t-53.5 -45.5t-19.5 -27.5z" />
<glyph unicode="&#xdc;" horiz-adv-x="983" d="M35 127q0 -80 52 -125t128 -45q133 0 307 109q129 86 260 223q35 37 69 77t69 80q86 111 151.5 210.5t112.5 193.5q112 223 112 399q0 37 -18 63.5t-47 26.5q-80 0 -80 -69q0 -20 3 -43t3 -33q0 -41 -16 -96q-4 -18 -25 -70q-41 -117 -112.5 -243t-157.5 -232 q-145 -178 -301 -309q-182 -154 -285 -154q-55 0 -74.5 24.5t-19.5 69.5q0 59 37 189q18 66 39.5 131t46.5 131q39 100 86 194q49 98 78 134q23 10 46 19t46 19q35 29 35 80q0 33 -20.5 47.5t-53.5 14.5q-102 0 -209 -187q-35 -59 -67.5 -131.5t-65.5 -165.5 q-23 -66 -45.5 -138t-42.5 -154q-41 -168 -41 -240zM650 1587q0 -51 39 -78q27 -20 55 -21q35 0 58.5 17.5t23.5 56.5q0 33 -35 61.5t-68 28.5q-29 0 -51 -22.5t-22 -42.5zM961 1587q0 -37 26.5 -63.5t63.5 -26.5q29 0 55.5 22t26.5 45q0 35 -30.5 61.5t-59.5 26.5 q-39 0 -60.5 -23.5t-21.5 -41.5z" />
<glyph unicode="&#xdd;" horiz-adv-x="935" d="M8 -96q0 -20 18.5 -45t32.5 -25q39 0 152 168q70 109 131 170q8 8 45 53t106.5 131t107.5 131t42 53.5t48 54.5t128 134q129 137 204 216t95 102q156 168 156 188q0 72 -62 72q-41 0 -114 -74q-16 -16 -63.5 -68.5t-125.5 -140.5t-155.5 -171t-155.5 -161q-8 23 -14 49.5 t-12.5 57t-18.5 87t-29 142.5q-25 113 -57 174q-39 76 -92 76q-29 -12 -39 -21q-39 -27 -39 -53q0 -2 31 -76q16 -37 30.5 -76.5t28.5 -82.5q16 -51 49 -224q23 -121 53 -170q-92 -111 -161.5 -197.5t-118.5 -152.5q-201 -260 -201 -321zM717 1436q0 -53 45 -53q33 0 101 86 q98 125 123 149q68 68 151 129q100 69 100 98q0 41 -45 41q-121 0 -305 -194q-170 -182 -170 -256z" />
<glyph unicode="&#xdf;" horiz-adv-x="870" d="M53 51q0 -51 33 -51q51 0 104 92l22.5 45t35.5 74q25 53 47 100t45 92q57 113 104 209q23 45 67 132t105 192q68 109 162 182q100 78 160 78q39 0 33 -31q-12 -47 -56 -92q-14 -16 -42.5 -40.5t-69.5 -59.5q-33 -29 -64.5 -66t-60.5 -84q-59 -98 -72 -172q-2 -8 -2 -41 q0 -115 60 -252q25 -59 24 -125q0 -92 -42 -152.5t-111 -60.5q-45 0 -82 26t-58 81q37 -25 51.5 -30t45.5 -5q35 0 54 19.5t19 52.5q0 43 -37 86q-43 49 -100 49q-31 0 -58.5 -14.5t-47 -38t-31.5 -54t-12 -61.5q0 -106 64.5 -166.5t193.5 -60.5q119 0 202.5 90t83.5 219 q0 84 -41 223t-41 223q0 74 194.5 268.5t194.5 274.5q0 63 -36.5 104.5t-102.5 41.5q-70 0 -203 -78q-176 -102 -276 -258q-68 -102 -141 -264q-20 -47 -40 -88.5t-40 -79.5q-35 -68 -70 -135.5t-69.5 -135t-57 -120t-33.5 -91.5q-2 -8 -5 -22.5t-3 -24.5z" />
<glyph unicode="&#xe0;" horiz-adv-x="860" d="M-6 86q0 -29 27.5 -57.5t68.5 -28.5q86 0 217 100q51 43 102.5 86t104.5 86q-14 -39 -24.5 -79.5t-10.5 -73.5q0 -45 23 -80q35 -41 112 -41q94 0 215 96q8 6 168 166q18 18 25.5 32.5t7.5 33.5q0 43 -35 43q-10 0 -18 -9q-33 -31 -65.5 -61.5t-65.5 -60.5 q-121 -111 -203 -111q-18 0 -25.5 16.5t-7.5 40.5q0 90 82 211q27 39 64 87t88 106q14 16 30.5 35.5t38.5 44.5q29 35 29 57q0 57 -49 57q-10 0 -32.5 -18.5t-45.5 -30.5q-43 37 -102 37q-80 0 -238 -127q-23 -18 -61.5 -52t-96.5 -85q-59 -55 -115.5 -115.5t-107.5 -126.5 q-100 -131 -100 -178zM196.5 182q-20.5 27 176 223.5t256.5 196.5q14 0 14 -18q0 -20 -10 -45q-29 -53 -221 -220q-195 -164 -215.5 -137zM571 1294q0 -150 117 -266q90 -90 137 -90q31 0 50 28q12 18 12 41q0 35 -43 60q-61 35 -101 129q-10 43 -21 86t-22 88 q-10 31 -47 30q-33 0 -57.5 -41t-24.5 -65z" />
<glyph unicode="&#xe1;" horiz-adv-x="870" d="M-6 86q0 -29 27.5 -57.5t68.5 -28.5q86 0 217 100q51 43 102.5 86t104.5 86q-14 -39 -24.5 -79.5t-10.5 -73.5q0 -45 23 -80q35 -41 112 -41q94 0 215 96q8 6 168 166q18 18 25.5 32.5t7.5 33.5q0 43 -35 43q-10 0 -18 -9q-33 -31 -65.5 -61.5t-65.5 -60.5 q-121 -111 -203 -111q-18 0 -25.5 16.5t-7.5 40.5q0 90 82 211q27 39 64 87t88 106q14 16 30.5 35.5t38.5 44.5q29 35 29 57q0 57 -49 57q-10 0 -32.5 -18.5t-45.5 -30.5q-43 37 -102 37q-80 0 -238 -127q-23 -18 -61.5 -52t-96.5 -85q-59 -55 -115.5 -115.5t-107.5 -126.5 q-100 -131 -100 -178zM196.5 182q-20.5 27 176 223.5t256.5 196.5q14 0 14 -18q0 -20 -10 -45q-29 -53 -221 -220q-195 -164 -215.5 -137zM436 977q0 -53 45 -53q33 0 101 86q98 125 123 149q68 68 151 129q100 69 100 98q0 41 -45 41q-121 0 -305 -194q-170 -182 -170 -256 z" />
<glyph unicode="&#xe2;" horiz-adv-x="870" d="M-6 86q0 -29 27.5 -57.5t68.5 -28.5q86 0 217 100q51 43 102.5 86t104.5 86q-14 -39 -24.5 -79.5t-10.5 -73.5q0 -45 23 -80q35 -41 112 -41q94 0 215 96q8 6 168 166q18 18 25.5 32.5t7.5 33.5q0 43 -35 43q-10 0 -18 -9q-33 -31 -65.5 -61.5t-65.5 -60.5 q-121 -111 -203 -111q-18 0 -25.5 16.5t-7.5 40.5q0 90 82 211q27 39 64 87t88 106q14 16 30.5 35.5t38.5 44.5q29 35 29 57q0 57 -49 57q-10 0 -32.5 -18.5t-45.5 -30.5q-43 37 -102 37q-80 0 -238 -127q-23 -18 -61.5 -52t-96.5 -85q-59 -55 -115.5 -115.5t-107.5 -126.5 q-100 -131 -100 -178zM196.5 182q-20.5 27 176 223.5t256.5 196.5q14 0 14 -18q0 -20 -10 -45q-29 -53 -221 -220q-195 -164 -215.5 -137zM444 1007q0 -18 15.5 -39.5t30.5 -21.5q63 0 196 102q70 51 184 148q23 -47 42.5 -90t35.5 -82q61 -135 94 -136q31 0 58.5 23.5 t27.5 46.5q0 49 -57 137q-35 51 -49 86q-29 61 -33 138q-4 74 -41 73q-31 0 -106 -67q-100 -90 -144 -117q-55 -37 -101 -69.5t-80 -58.5t-53.5 -45.5t-19.5 -27.5z" />
<glyph unicode="&#xe3;" horiz-adv-x="870" d="M-6 86q0 -29 27.5 -57.5t68.5 -28.5q86 0 217 100q51 43 102.5 86t104.5 86q-14 -39 -24.5 -79.5t-10.5 -73.5q0 -45 23 -80q35 -41 112 -41q94 0 215 96q8 6 168 166q18 18 25.5 32.5t7.5 33.5q0 43 -35 43q-10 0 -18 -9q-33 -31 -65.5 -61.5t-65.5 -60.5 q-121 -111 -203 -111q-18 0 -25.5 16.5t-7.5 40.5q0 90 82 211q27 39 64 87t88 106q14 16 30.5 35.5t38.5 44.5q29 35 29 57q0 57 -49 57q-10 0 -32.5 -18.5t-45.5 -30.5q-43 37 -102 37q-80 0 -238 -127q-23 -18 -61.5 -52t-96.5 -85q-59 -55 -115.5 -115.5t-107.5 -126.5 q-100 -131 -100 -178zM196.5 182q-20.5 27 176 223.5t256.5 196.5q14 0 14 -18q0 -20 -10 -45q-29 -53 -221 -220q-195 -164 -215.5 -137zM389 1008q0 -27 20.5 -38.5t49.5 -11.5q63 0 210.5 66t145.5 66q25 0 47 -43q49 -96 92 -113q12 -4 33 -8t37 -4q39 0 64.5 16 t25.5 53q0 33 -28.5 40.5t-69.5 17.5q-16 33 -33.5 63.5t-34.5 63.5q-37 53 -84 53q-37 0 -67 -15q-27 -14 -51.5 -26t-49.5 -25q-45 -20 -71.5 -32.5t-36.5 -16.5q-35 -14 -63.5 -22.5t-49.5 -10.5q-86 -10 -86 -73z" />
<glyph unicode="&#xe4;" horiz-adv-x="870" d="M-6 86q0 -29 27.5 -57.5t68.5 -28.5q86 0 217 100q51 43 102.5 86t104.5 86q-14 -39 -24.5 -79.5t-10.5 -73.5q0 -45 23 -80q35 -41 112 -41q94 0 215 96q8 6 168 166q18 18 25.5 32.5t7.5 33.5q0 43 -35 43q-10 0 -18 -9q-33 -31 -65.5 -61.5t-65.5 -60.5 q-121 -111 -203 -111q-18 0 -25.5 16.5t-7.5 40.5q0 90 82 211q27 39 64 87t88 106q14 16 30.5 35.5t38.5 44.5q29 35 29 57q0 57 -49 57q-10 0 -32.5 -18.5t-45.5 -30.5q-43 37 -102 37q-80 0 -238 -127q-23 -18 -61.5 -52t-96.5 -85q-59 -55 -115.5 -115.5t-107.5 -126.5 q-100 -131 -100 -178zM196.5 182q-20.5 27 176 223.5t256.5 196.5q14 0 14 -18q0 -20 -10 -45q-29 -53 -221 -220q-195 -164 -215.5 -137zM494 1125q0 -51 39 -78q27 -20 55 -21q35 0 58.5 17.5t23.5 56.5q0 33 -35 61.5t-68 28.5q-29 0 -51 -22.5t-22 -42.5zM805 1125 q0 -37 26.5 -63.5t63.5 -26.5q29 0 55.5 22t26.5 45q0 35 -30.5 61.5t-59.5 26.5q-39 0 -60.5 -23.5t-21.5 -41.5z" />
<glyph unicode="&#xe7;" horiz-adv-x="622" d="M-229 -389q0 -94 86 -137q61 -29 141 -29q104 0 201 135q98 131 98 283q0 29 -11.5 69.5t-29.5 69.5q68 18 165 69.5t245 157.5q51 37 77.5 68t26.5 63q0 33 -45 33q-14 2 -49 -20.5t-64 -42.5q-61 -41 -101 -69t-60 -40q-156 -94 -256 -94q-43 4 -43 35q0 47 63 137 q59 86 127 150q84 78 168 122q70 37 133.5 51.5t91 32t27.5 47.5q0 33 -16.5 47.5t-71.5 14.5q-59 0 -164 -51q-106 -51 -195 -119q-125 -96 -219 -239.5t-94 -211.5q0 -51 31 -92t76 -51q23 -33 36 -55.5t17 -32.5q10 -25 10 -49q0 -96 -61 -191q-61 -96 -113 -96 q-49 0 -79 14.5t-30 57.5q0 35 15 57q29 51 28 53q2 16 -12 25.5t-31 9.5q-39 0 -73 -35q-45 -45 -45 -147z" />
<glyph unicode="&#xe8;" horiz-adv-x="593" d="M0 168q0 -90 66 -125q41 -23 118 -23q76 0 230 80q155 82 307 166q31 16 42 38t9 40q0 25 -12 32t-35 7q-113 -61 -229 -121q-229 -119 -308 -119q-23 0 -42 21.5t-19 46.5q0 41 27 80q4 4 12 16l22 33q152 0 396 176q229 168 229 246q0 35 -21.5 62.5t-54.5 27.5 q-104 0 -213 -51q-109 -49 -270 -195q-109 -98 -178 -215q-76 -125 -76 -223zM299 485q20 29 67.5 70t96.5 76q39 27 88 48.5t98 35.5q-16 -16 -35.5 -34.5t-40.5 -37.5q-51 -49 -88 -72q-49 -33 -103 -59.5t-83 -26.5zM548 1319q0 -150 117 -266q90 -90 137 -90q31 0 50 28 q12 18 12 41q0 35 -43 60q-61 35 -101 129q-10 43 -21 86t-22 88q-10 31 -47 30q-33 0 -57.5 -41t-24.5 -65z" />
<glyph unicode="&#xe9;" horiz-adv-x="593" d="M0 168q0 -90 66 -125q41 -23 118 -23q76 0 230 80q155 82 307 166q31 16 42 38t9 40q0 25 -12 32t-35 7q-113 -61 -229 -121q-229 -119 -308 -119q-23 0 -42 21.5t-19 46.5q0 41 27 80q4 4 12 16l22 33q152 0 396 176q229 168 229 246q0 35 -21.5 62.5t-54.5 27.5 q-104 0 -213 -51q-109 -49 -270 -195q-109 -98 -178 -215q-76 -125 -76 -223zM299 485q20 29 67.5 70t96.5 76q39 27 88 48.5t98 35.5q-16 -16 -35.5 -34.5t-40.5 -37.5q-51 -49 -88 -72q-49 -33 -103 -59.5t-83 -26.5zM436 1020q0 -53 45 -53q33 0 101 86q98 125 123 149 q68 68 151 129q100 69 100 98q0 41 -45 41q-121 0 -305 -194q-170 -182 -170 -256z" />
<glyph unicode="&#xea;" horiz-adv-x="593" d="M0 168q0 -90 66 -125q41 -23 118 -23q76 0 230 80q155 82 307 166q31 16 42 38t9 40q0 25 -12 32t-35 7q-113 -61 -229 -121q-229 -119 -308 -119q-23 0 -42 21.5t-19 46.5q0 41 27 80q4 4 12 16l22 33q152 0 396 176q229 168 229 246q0 35 -21.5 62.5t-54.5 27.5 q-104 0 -213 -51q-109 -49 -270 -195q-109 -98 -178 -215q-76 -125 -76 -223zM299 485q20 29 67.5 70t96.5 76q39 27 88 48.5t98 35.5q-16 -16 -35.5 -34.5t-40.5 -37.5q-51 -49 -88 -72q-49 -33 -103 -59.5t-83 -26.5zM444 1038q0 -18 15.5 -39.5t30.5 -21.5q63 0 196 102 q70 51 184 148q23 -47 42.5 -90t35.5 -82q61 -135 94 -136q31 0 58.5 23.5t27.5 46.5q0 49 -57 137q-35 51 -49 86q-29 61 -33 138q-4 74 -41 73q-31 0 -106 -67q-100 -90 -144 -117q-55 -37 -101 -69.5t-80 -58.5t-53.5 -45.5t-19.5 -27.5z" />
<glyph unicode="&#xeb;" horiz-adv-x="604" d="M0 168q0 -90 66 -125q41 -23 118 -23q76 0 230 80q155 82 307 166q31 16 42 38t9 40q0 25 -12 32t-35 7q-113 -61 -229 -121q-229 -119 -308 -119q-23 0 -42 21.5t-19 46.5q0 41 27 80q4 4 12 16l22 33q152 0 396 176q229 168 229 246q0 35 -21.5 62.5t-54.5 27.5 q-104 0 -213 -51q-109 -49 -270 -195q-109 -98 -178 -215q-76 -125 -76 -223zM299 485q20 29 67.5 70t96.5 76q39 27 88 48.5t98 35.5q-16 -16 -35.5 -34.5t-40.5 -37.5q-51 -49 -88 -72q-49 -33 -103 -59.5t-83 -26.5zM494 1106q0 -51 39 -78q27 -20 55 -21q35 0 58.5 17.5 t23.5 56.5q0 33 -35 61.5t-68 28.5q-29 0 -51 -22.5t-22 -42.5zM805 1106q0 -37 26.5 -63.5t63.5 -26.5q29 0 55.5 22t26.5 45q0 35 -30.5 61.5t-59.5 26.5q-39 0 -60.5 -23.5t-21.5 -41.5z" />
<glyph unicode="&#xec;" horiz-adv-x="645" d="M0 78q0 -31 26.5 -52.5t51.5 -21.5q78 0 272 115q213 129 441 307q10 8 18 15.5t12 11.5q23 27 23 36q0 16 -12.5 31t-28.5 15q-23 0 -49 -19q-55 -41 -125 -88t-156 -100q-217 -133 -270 -133q-2 0 -6 3t-4 9q0 35 83 153q39 53 88.5 115t110.5 131q20 20 92 62 q51 27 51 63q0 39 -19 51.5t-50 12.5q-70 0 -211 -162q-59 -70 -117.5 -147.5t-111.5 -170.5q-109 -182 -109 -237zM571 1278q0 -150 117 -266q90 -90 137 -90q31 0 50 28q12 18 12 41q0 35 -43 60q-61 35 -101 129q-10 43 -21 86t-22 88q-10 31 -47 30q-33 0 -57.5 -41 t-24.5 -65z" />
<glyph unicode="&#xed;" horiz-adv-x="675" d="M0 78q0 -31 26.5 -52.5t51.5 -21.5q78 0 272 115q213 129 441 307q10 8 18 15.5t12 11.5q23 27 23 36q0 16 -12.5 31t-28.5 15q-23 0 -49 -19q-55 -41 -125 -88t-156 -100q-217 -133 -270 -133q-2 0 -6 3t-4 9q0 35 83 153q39 53 88.5 115t110.5 131q20 20 92 62 q51 27 51 63q0 39 -19 51.5t-50 12.5q-70 0 -211 -162q-59 -70 -117.5 -147.5t-111.5 -170.5q-109 -182 -109 -237zM436 940q0 -53 45 -53q33 0 101 86q98 125 123 149q68 68 151 129q100 69 100 98q0 41 -45 41q-121 0 -305 -194q-170 -182 -170 -256z" />
<glyph unicode="&#xee;" horiz-adv-x="675" d="M0 78q0 -31 26.5 -52.5t51.5 -21.5q78 0 272 115q213 129 441 307q10 8 18 15.5t12 11.5q23 27 23 36q0 16 -12.5 31t-28.5 15q-23 0 -49 -19q-55 -41 -125 -88t-156 -100q-217 -133 -270 -133q-2 0 -6 3t-4 9q0 35 83 153q39 53 88.5 115t110.5 131q20 20 92 62 q51 27 51 63q0 39 -19 51.5t-50 12.5q-70 0 -211 -162q-59 -70 -117.5 -147.5t-111.5 -170.5q-109 -182 -109 -237zM444 968q0 -18 15.5 -39.5t30.5 -21.5q63 0 196 102q70 51 184 148q23 -47 42.5 -90t35.5 -82q61 -135 94 -136q31 0 58.5 23.5t27.5 46.5q0 49 -57 137 q-35 51 -49 86q-29 61 -33 138q-4 74 -41 73q-31 0 -106 -67q-100 -90 -144 -117q-55 -37 -101 -69.5t-80 -58.5t-53.5 -45.5t-19.5 -27.5z" />
<glyph unicode="&#xef;" horiz-adv-x="675" d="M0 78q0 -31 26.5 -52.5t51.5 -21.5q78 0 272 115q213 129 441 307q10 8 18 15.5t12 11.5q23 27 23 36q0 16 -12.5 31t-28.5 15q-23 0 -49 -19q-55 -41 -125 -88t-156 -100q-217 -133 -270 -133q-2 0 -6 3t-4 9q0 35 83 153q39 53 88.5 115t110.5 131q20 20 92 62 q51 27 51 63q0 39 -19 51.5t-50 12.5q-70 0 -211 -162q-59 -70 -117.5 -147.5t-111.5 -170.5q-109 -182 -109 -237zM494 1123q0 -51 39 -78q27 -20 55 -21q35 0 58.5 17.5t23.5 56.5q0 33 -35 61.5t-68 28.5q-29 0 -51 -22.5t-22 -42.5zM805 1123q0 -37 26.5 -63.5 t63.5 -26.5q29 0 55.5 22t26.5 45q0 35 -30.5 61.5t-59.5 26.5q-39 0 -60.5 -23.5t-21.5 -41.5z" />
<glyph unicode="&#xf1;" horiz-adv-x="878" d="M8 94q0 -37 23 -65q6 -8 22 -19q66 0 281 154l252 190l8 -10q-10 -14 -30.5 -45t-53.5 -80q-55 -96 -55 -168q0 -29 25.5 -44t56.5 -11q76 0 280.5 125t204.5 158q0 43 -39 43q-12 0 -174 -93q-164 -90 -182 -90t-19 15q0 14 37 67q14 23 295 330q86 94 86 129 q0 39 -22 39q-29 0 -95 -39q-33 -20 -94 -61t-153 -107q-66 -47 -160 -110.5t-219 -143.5l-11 8q20 35 52 80t79 103q160 197 160 251q0 49 -57 50q-31 0 -160 -164q-49 -63 -105.5 -140t-119.5 -172q-113 -164 -113 -180zM522 1016q0 -27 20.5 -38.5t49.5 -11.5 q63 0 210.5 66t145.5 66q25 0 47 -43q49 -96 92 -113q12 -4 33 -8t37 -4q39 0 64.5 16t25.5 53q0 33 -28.5 40.5t-69.5 17.5q-16 33 -33.5 63.5t-34.5 63.5q-37 53 -84 53q-37 0 -67 -15q-27 -14 -51.5 -26t-49.5 -25q-45 -20 -71.5 -32.5t-36.5 -16.5q-35 -14 -63.5 -22.5 t-49.5 -10.5q-86 -10 -86 -73z" />
<glyph unicode="&#xf2;" horiz-adv-x="518" d="M-2 47q0 -47 18.5 -74.5t69.5 -27.5q61 0 244 172q76 74 144.5 151.5t133.5 159.5q131 12 197 33q94 26 94 71q0 31 -37 35q-2 0 -27.5 -3t-72.5 -7t-80 -8t-51 -8q0 4 1 13t3 21v33q0 82 -25 129q-31 55 -98 56q-80 0 -180 -99q-35 -35 -63.5 -70.5t-51.5 -76.5 q-41 -63 -65.5 -104.5t-34.5 -57.5q-117 -207 -117 -301q-2 -8 -2 -37zM125 113q0 10 35 96q16 41 31.5 74.5t29.5 62.5q29 57 56.5 106.5t56.5 90.5q88 129 141 129q20 0 28.5 -28.5t8.5 -59.5q-8 -117 -176 -318q-152 -182 -193 -182q-18 0 -18 29zM385 1339 q0 -150 117 -266q90 -90 137 -90q31 0 50 28q12 18 12 41q0 35 -43 60q-61 35 -101 129q-10 43 -21 86t-22 88q-10 31 -47 30q-33 0 -57.5 -41t-24.5 -65z" />
<glyph unicode="&#xf3;" horiz-adv-x="518" d="M-2 47q0 -47 18.5 -74.5t69.5 -27.5q61 0 244 172q76 74 144.5 151.5t133.5 159.5q131 12 197 33q94 26 94 71q0 31 -37 35q-2 0 -27.5 -3t-72.5 -7t-80 -8t-51 -8q0 4 1 13t3 21v33q0 82 -25 129q-31 55 -98 56q-80 0 -180 -99q-35 -35 -63.5 -70.5t-51.5 -76.5 q-41 -63 -65.5 -104.5t-34.5 -57.5q-117 -207 -117 -301q-2 -8 -2 -37zM125 113q0 10 35 96q16 41 31.5 74.5t29.5 62.5q29 57 56.5 106.5t56.5 90.5q88 129 141 129q20 0 28.5 -28.5t8.5 -59.5q-8 -117 -176 -318q-152 -182 -193 -182q-18 0 -18 29zM436 952q0 -53 45 -53 q33 0 101 86q98 125 123 149q68 68 151 129q100 69 100 98q0 41 -45 41q-121 0 -305 -194q-170 -182 -170 -256z" />
<glyph unicode="&#xf4;" horiz-adv-x="518" d="M-2 47q0 -47 18.5 -74.5t69.5 -27.5q61 0 244 172q76 74 144.5 151.5t133.5 159.5q131 12 197 33q94 26 94 71q0 31 -37 35q-2 0 -27.5 -3t-72.5 -7t-80 -8t-51 -8q0 4 1 13t3 21v33q0 82 -25 129q-31 55 -98 56q-80 0 -180 -99q-35 -35 -63.5 -70.5t-51.5 -76.5 q-41 -63 -65.5 -104.5t-34.5 -57.5q-117 -207 -117 -301q-2 -8 -2 -37zM125 113q0 10 35 96q16 41 31.5 74.5t29.5 62.5q29 57 56.5 106.5t56.5 90.5q88 129 141 129q20 0 28.5 -28.5t8.5 -59.5q-8 -117 -176 -318q-152 -182 -193 -182q-18 0 -18 29zM444 919 q0 -18 15.5 -39.5t30.5 -21.5q63 0 196 102q70 51 184 148q23 -47 42.5 -90t35.5 -82q61 -135 94 -136q31 0 58.5 23.5t27.5 46.5q0 49 -57 137q-35 51 -49 86q-29 61 -33 138q-4 74 -41 73q-31 0 -106 -67q-100 -90 -144 -117q-55 -37 -101 -69.5t-80 -58.5t-53.5 -45.5 t-19.5 -27.5z" />
<glyph unicode="&#xf5;" horiz-adv-x="518" d="M-2 47q0 -47 18.5 -74.5t69.5 -27.5q61 0 244 172q76 74 144.5 151.5t133.5 159.5q131 12 197 33q94 26 94 71q0 31 -37 35q-2 0 -27.5 -3t-72.5 -7t-80 -8t-51 -8q0 4 1 13t3 21v33q0 82 -25 129q-31 55 -98 56q-80 0 -180 -99q-35 -35 -63.5 -70.5t-51.5 -76.5 q-41 -63 -65.5 -104.5t-34.5 -57.5q-117 -207 -117 -301q-2 -8 -2 -37zM125 113q0 10 35 96q16 41 31.5 74.5t29.5 62.5q29 57 56.5 106.5t56.5 90.5q88 129 141 129q20 0 28.5 -28.5t8.5 -59.5q-8 -117 -176 -318q-152 -182 -193 -182q-18 0 -18 29zM387 981 q0 -27 20.5 -38.5t49.5 -11.5q63 0 210.5 66t145.5 66q25 0 47 -43q49 -96 92 -113q12 -4 33 -8t37 -4q39 0 64.5 16t25.5 53q0 33 -28.5 40.5t-69.5 17.5q-16 33 -33.5 63.5t-34.5 63.5q-37 53 -84 53q-37 0 -67 -15q-27 -14 -51.5 -26t-49.5 -25q-45 -20 -71.5 -32.5 t-36.5 -16.5q-35 -14 -63.5 -22.5t-49.5 -10.5q-86 -10 -86 -73z" />
<glyph unicode="&#xf6;" horiz-adv-x="518" d="M-2 47q0 -47 18.5 -74.5t69.5 -27.5q61 0 244 172q76 74 144.5 151.5t133.5 159.5q131 12 197 33q94 26 94 71q0 31 -37 35q-2 0 -27.5 -3t-72.5 -7t-80 -8t-51 -8q0 4 1 13t3 21v33q0 82 -25 129q-31 55 -98 56q-80 0 -180 -99q-35 -35 -63.5 -70.5t-51.5 -76.5 q-41 -63 -65.5 -104.5t-34.5 -57.5q-117 -207 -117 -301q-2 -8 -2 -37zM125 113q0 10 35 96q16 41 31.5 74.5t29.5 62.5q29 57 56.5 106.5t56.5 90.5q88 129 141 129q20 0 28.5 -28.5t8.5 -59.5q-8 -117 -176 -318q-152 -182 -193 -182q-18 0 -18 29zM494 1094q0 -51 39 -78 q27 -20 55 -21q35 0 58.5 17.5t23.5 56.5q0 33 -35 61.5t-68 28.5q-29 0 -51 -22.5t-22 -42.5zM805 1094q0 -37 26.5 -63.5t63.5 -26.5q29 0 55.5 22t26.5 45q0 35 -30.5 61.5t-59.5 26.5q-39 0 -60.5 -23.5t-21.5 -41.5z" />
<glyph unicode="&#xf7;" horiz-adv-x="770" d="M111 377q0 -37 25.5 -51.5t105.5 -14.5q205 0 362 31q158 35 158 72q0 57 -131 57q-23 0 -72 -5t-127 -15q-31 -4 -55.5 -6.5t-40.5 -2.5q-106 0 -165.5 -17t-59.5 -48zM287 135q0 -31 24 -67q35 -47 54 -48q39 0 62.5 28t23.5 87q0 43 -21.5 60.5t-60.5 17.5 q-25 0 -53.5 -24.5t-28.5 -53.5zM430 653q0 -45 22.5 -83t59.5 -38q31 0 52.5 32t21.5 71q0 43 -12.5 67.5t-49.5 30.5q-39 6 -66.5 -19.5t-27.5 -60.5z" />
<glyph unicode="&#xf8;" horiz-adv-x="675" d="M0 -264q0 -41 23 -41q35 0 56 16.5t36 44.5l102 211q41 23 100.5 72t135.5 125q70 72 128 136.5t105 123.5q61 6 114.5 15.5t93.5 22.5t62.5 30.5t22.5 39.5q0 35 -41 39q-10 0 -70.5 -7t-158.5 -21v65q0 82 -14.5 130t-57.5 48q20 37 40.5 74t43.5 74q68 119 67 139 q0 53 -47 53q-37 0 -77 -65q-16 -33 -33 -63.5t-33 -63.5l-78 -143q-78 -23 -166 -99q-84 -72 -155 -164q-88 -111 -128 -215t-40 -227q0 -41 21.5 -72.5t47.5 -44.5q-100 -215 -100 -233zM178 172q0 72 35 140.5t96 154.5q51 70 103 121l-56 -96q-41 -88 -84 -175.5 t-84 -175.5q-10 6 -10 31zM342 213l119 236l106 200q17 -26 17 -59q0 -80 -86 -199q-33 -47 -72 -91t-84 -87z" />
<glyph unicode="&#xf9;" horiz-adv-x="890" d="M10 8q0 -16 19.5 -31.5t42.5 -15.5q51 0 282 172q59 47 140 110.5t182 141.5l8 -10q-59 -92 -98 -172t-39 -125q0 -66 65 -66q66 0 205 103q8 6 60.5 49t150.5 123q31 20 62 49q40 37 40 57q2 18 -34 29q-25 4 -174 -94q-41 -29 -84 -56.5t-84 -56.5l-11 8 q20 31 56.5 86.5t89.5 132.5q156 242 155 308q0 45 -38 45q-25 0 -82 -64q-4 -4 -31 -35.5t-74 -89.5q-27 -16 -89 -62t-163 -120q-147 -109 -233 -168t-115 -74l-10 8l135 203q12 18 33.5 46t50.5 65q86 106 86 151q0 20 -18 39q-10 10 -23 11q-55 0 -129 -101 q-14 -18 -45 -67.5t-82 -130.5q-29 -43 -55.5 -86.5t-55.5 -83.5q-96 -152 -96 -228zM571 1264q0 -150 117 -266q90 -90 137 -90q31 0 50 28q12 18 12 41q0 35 -43 60q-61 35 -101 129q-10 43 -21 86t-22 88q-10 31 -47 30q-33 0 -57.5 -41t-24.5 -65z" />
<glyph unicode="&#xfa;" horiz-adv-x="911" d="M10 8q0 -16 19.5 -31.5t42.5 -15.5q51 0 282 172q59 47 140 110.5t182 141.5l8 -10q-59 -92 -98 -172t-39 -125q0 -66 65 -66q66 0 205 103q8 6 60.5 49t150.5 123q31 20 62 49q40 37 40 57q2 18 -34 29q-25 4 -174 -94q-41 -29 -84 -56.5t-84 -56.5l-11 8 q20 31 56.5 86.5t89.5 132.5q156 242 155 308q0 45 -38 45q-25 0 -82 -64q-4 -4 -31 -35.5t-74 -89.5q-27 -16 -89 -62t-163 -120q-147 -109 -233 -168t-115 -74l-10 8l135 203q12 18 33.5 46t50.5 65q86 106 86 151q0 20 -18 39q-10 10 -23 11q-55 0 -129 -101 q-14 -18 -45 -67.5t-82 -130.5q-29 -43 -55.5 -86.5t-55.5 -83.5q-96 -152 -96 -228zM436 961q0 -53 45 -53q33 0 101 86q98 125 123 149q68 68 151 129q100 69 100 98q0 41 -45 41q-121 0 -305 -194q-170 -182 -170 -256z" />
<glyph unicode="&#xfb;" horiz-adv-x="911" d="M10 8q0 -16 19.5 -31.5t42.5 -15.5q51 0 282 172q59 47 140 110.5t182 141.5l8 -10q-59 -92 -98 -172t-39 -125q0 -66 65 -66q66 0 205 103q8 6 60.5 49t150.5 123q31 20 62 49q40 37 40 57q2 18 -34 29q-25 4 -174 -94q-41 -29 -84 -56.5t-84 -56.5l-11 8 q20 31 56.5 86.5t89.5 132.5q156 242 155 308q0 45 -38 45q-25 0 -82 -64q-4 -4 -31 -35.5t-74 -89.5q-27 -16 -89 -62t-163 -120q-147 -109 -233 -168t-115 -74l-10 8l135 203q12 18 33.5 46t50.5 65q86 106 86 151q0 20 -18 39q-10 10 -23 11q-55 0 -129 -101 q-14 -18 -45 -67.5t-82 -130.5q-29 -43 -55.5 -86.5t-55.5 -83.5q-96 -152 -96 -228zM444 1042q0 -18 15.5 -39.5t30.5 -21.5q63 0 196 102q70 51 184 148q23 -47 42.5 -90t35.5 -82q61 -135 94 -136q31 0 58.5 23.5t27.5 46.5q0 49 -57 137q-35 51 -49 86q-29 61 -33 138 q-4 74 -41 73q-31 0 -106 -67q-100 -90 -144 -117q-55 -37 -101 -69.5t-80 -58.5t-53.5 -45.5t-19.5 -27.5z" />
<glyph unicode="&#xfc;" horiz-adv-x="911" d="M10 8q0 -16 19.5 -31.5t42.5 -15.5q51 0 282 172q59 47 140 110.5t182 141.5l8 -10q-59 -92 -98 -172t-39 -125q0 -66 65 -66q66 0 205 103q8 6 60.5 49t150.5 123q31 20 62 49q40 37 40 57q2 18 -34 29q-25 4 -174 -94q-41 -29 -84 -56.5t-84 -56.5l-11 8 q20 31 56.5 86.5t89.5 132.5q156 242 155 308q0 45 -38 45q-25 0 -82 -64q-4 -4 -31 -35.5t-74 -89.5q-27 -16 -89 -62t-163 -120q-147 -109 -233 -168t-115 -74l-10 8l135 203q12 18 33.5 46t50.5 65q86 106 86 151q0 20 -18 39q-10 10 -23 11q-55 0 -129 -101 q-14 -18 -45 -67.5t-82 -130.5q-29 -43 -55.5 -86.5t-55.5 -83.5q-96 -152 -96 -228zM494 1071q0 -51 39 -78q27 -20 55 -21q35 0 58.5 17.5t23.5 56.5q0 33 -35 61.5t-68 28.5q-29 0 -51 -22.5t-22 -42.5zM805 1071q0 -37 26.5 -63.5t63.5 -26.5q29 0 55.5 22t26.5 45 q0 35 -30.5 61.5t-59.5 26.5q-39 0 -60.5 -23.5t-21.5 -41.5z" />
<glyph unicode="&#xfd;" horiz-adv-x="882" d="M-346 -424q0 -41 41 -71.5t88 -30.5q203 0 440 178q158 115 281 262q86 94 184 242q29 43 70 104.5t94 138.5q160 180 160 207q0 29 -12.5 49.5t-49.5 20.5q-45 0 -126 -78t-173 -213q-293 -213 -311 -223q-90 -55 -123 -56q-29 0 -37 5.5t-8 29.5q0 41 92 176 q94 137 172 215q33 29 66 59t65 58q31 31 31 56q0 37 -45 45q-45 6 -176 -113q-129 -119 -223 -260q-113 -164 -113 -283q0 -51 16 -80q27 -37 103 -37q96 0 211 70q16 10 62 45t118 92l6 -6q-121 -221 -377 -416q-223 -174 -346 -174q-43 0 -57.5 33t-52.5 33 q-39 0 -54.5 -26.5t-15.5 -51.5zM782 854q0 -53 45 -53q33 0 101 86q98 125 123 149q68 68 151 129q100 69 100 98q0 41 -45 41q-121 0 -305 -194q-170 -182 -170 -256z" />
<glyph unicode="&#xff;" horiz-adv-x="882" d="M-346 -424q0 -41 41 -71.5t88 -30.5q203 0 440 178q158 115 281 262q86 94 184 242q29 43 70 104.5t94 138.5q160 180 160 207q0 29 -12.5 49.5t-49.5 20.5q-45 0 -126 -78t-173 -213q-293 -213 -311 -223q-90 -55 -123 -56q-29 0 -37 5.5t-8 29.5q0 41 92 176 q94 137 172 215q33 29 66 59t65 58q31 31 31 56q0 37 -45 45q-45 6 -176 -113q-129 -119 -223 -260q-113 -164 -113 -283q0 -51 16 -80q27 -37 103 -37q96 0 211 70q16 10 62 45t118 92l6 -6q-121 -221 -377 -416q-223 -174 -346 -174q-43 0 -57.5 33t-52.5 33 q-39 0 -54.5 -26.5t-15.5 -51.5zM494 1045q0 -51 39 -78q27 -20 55 -21q35 0 58.5 17.5t23.5 56.5q0 33 -35 61.5t-68 28.5q-29 0 -51 -22.5t-22 -42.5zM805 1045q0 -37 26.5 -63.5t63.5 -26.5q29 0 55.5 22t26.5 45q0 35 -30.5 61.5t-59.5 26.5q-39 0 -60.5 -23.5 t-21.5 -41.5z" />
<glyph unicode="&#x178;" horiz-adv-x="890" d="M8 -96q0 -20 18.5 -45t32.5 -25q39 0 152 168q70 109 131 170q8 8 45 53t106.5 131t107.5 131t42 53.5t48 54.5t128 134q129 137 204 216t95 102q156 168 156 188q0 72 -62 72q-41 0 -114 -74q-16 -16 -63.5 -68.5t-125.5 -140.5t-155.5 -171t-155.5 -161q-8 23 -14 49.5 t-12.5 57t-18.5 87t-29 142.5q-25 113 -57 174q-39 76 -92 76q-29 -12 -39 -21q-39 -27 -39 -53q0 -2 31 -76q16 -37 30.5 -76.5t28.5 -82.5q16 -51 49 -224q23 -121 53 -170q-92 -111 -161.5 -197.5t-118.5 -152.5q-201 -260 -201 -321zM553 1495q0 -51 39 -78 q27 -20 55 -21q35 0 58.5 17.5t23.5 56.5q0 33 -35 61.5t-68 28.5q-29 0 -51 -22.5t-22 -42.5zM864 1495q0 -37 26.5 -63.5t63.5 -26.5q29 0 55.5 22t26.5 45q0 35 -30.5 61.5t-59.5 26.5q-39 0 -60.5 -23.5t-21.5 -41.5z" />
<glyph unicode="&#x2c6;" horiz-adv-x="1015" d="M446 1118q0 -18 15.5 -39.5t30.5 -21.5q63 0 196 102q70 51 184 148q23 -47 42.5 -90t35.5 -82q61 -135 94 -136q31 0 58.5 23.5t27.5 46.5q0 49 -57 137q-35 51 -49 86q-29 61 -33 138q-4 74 -41 73q-31 0 -106 -67q-100 -90 -144 -117q-55 -37 -101 -69.5t-80 -58.5 t-53.5 -45.5t-19.5 -27.5z" />
<glyph unicode="&#x2dc;" horiz-adv-x="1024" d="M389 1008q0 -27 20.5 -38.5t49.5 -11.5q63 0 210.5 66t145.5 66q25 0 47 -43q49 -96 92 -113q12 -4 33 -8t37 -4q39 0 64.5 16t25.5 53q0 33 -28.5 40.5t-69.5 17.5q-16 33 -33.5 63.5t-34.5 63.5q-37 53 -84 53q-37 0 -67 -15q-27 -14 -51.5 -26t-49.5 -25 q-45 -20 -71.5 -32.5t-36.5 -16.5q-35 -14 -63.5 -22.5t-49.5 -10.5q-86 -10 -86 -73z" />
<glyph unicode="&#x2000;" horiz-adv-x="991" />
<glyph unicode="&#x2001;" horiz-adv-x="1982" />
<glyph unicode="&#x2002;" horiz-adv-x="991" />
<glyph unicode="&#x2003;" horiz-adv-x="1982" />
<glyph unicode="&#x2004;" horiz-adv-x="660" />
<glyph unicode="&#x2005;" horiz-adv-x="495" />
<glyph unicode="&#x2006;" horiz-adv-x="330" />
<glyph unicode="&#x2007;" horiz-adv-x="330" />
<glyph unicode="&#x2008;" horiz-adv-x="247" />
<glyph unicode="&#x2009;" horiz-adv-x="396" />
<glyph unicode="&#x200a;" horiz-adv-x="110" />
<glyph unicode="&#x2010;" d="M227 442q0 -37 26 -51t105 -14q205 0 363 31q158 34 158 71q0 57 -131 58q-23 0 -72 -5.5t-127 -15.5q-31 -4 -55.5 -6t-40.5 -2q-106 0 -166 -17.5t-60 -48.5z" />
<glyph unicode="&#x2011;" d="M227 442q0 -37 26 -51t105 -14q205 0 363 31q158 34 158 71q0 57 -131 58q-23 0 -72 -5.5t-127 -15.5q-31 -4 -55.5 -6t-40.5 -2q-106 0 -166 -17.5t-60 -48.5z" />
<glyph unicode="&#x2012;" d="M227 442q0 -37 26 -51t105 -14q205 0 363 31q158 34 158 71q0 57 -131 58q-23 0 -72 -5.5t-127 -15.5q-31 -4 -55.5 -6t-40.5 -2q-106 0 -166 -17.5t-60 -48.5z" />
<glyph unicode="&#x2013;" d="M227 442q0 -37 26 -51t105 -14q205 0 363 31q158 34 158 71q0 57 -131 58q-23 0 -72 -5.5t-127 -15.5q-31 -4 -55.5 -6t-40.5 -2q-106 0 -166 -17.5t-60 -48.5z" />
<glyph unicode="&#x2014;" horiz-adv-x="1210" d="M227 442q0 -37 26 -51t105 -14h142q186 0 316 6t206 16q152 23 152 60q0 57 -132 57l-589 -8q-106 0 -166 -17.5t-60 -48.5z" />
<glyph unicode="&#x2018;" horiz-adv-x="753" d="M582 1184q0 -57 49 -58q47 0 151 162q107 162 107 219q0 35 -4 47q-10 18 -49 19q-41 0 -152 -184q-102 -174 -102 -205z" />
<glyph unicode="&#x2019;" horiz-adv-x="753" d="M582 1184q0 -57 49 -58q47 0 151 162q107 162 107 219q0 35 -4 47q-10 18 -49 19q-41 0 -152 -184q-102 -174 -102 -205z" />
<glyph unicode="&#x201a;" horiz-adv-x="753" d="M164 -117q0 -57 49 -57q47 0 152 160q106 156 106 215q0 35 -4 47q-10 18 -49 18q-41 0 -152 -184q-102 -168 -102 -199z" />
<glyph unicode="&#x201c;" horiz-adv-x="813" d="M516 1188q0 -57 49 -58q47 0 152 162q106 162 106 219q0 35 -4 48q-10 18 -49 18q-41 0 -152 -184q-102 -174 -102 -205zM766 1188q0 -57 49 -58q47 0 152 162q106 162 106 219q0 35 -4 48q-10 18 -49 18q-41 0 -152 -184q-102 -174 -102 -205z" />
<glyph unicode="&#x201d;" horiz-adv-x="813" d="M516 1188q0 -57 49 -58q47 0 152 162q106 162 106 219q0 35 -4 48q-10 18 -49 18q-41 0 -152 -184q-102 -174 -102 -205zM766 1188q0 -57 49 -58q47 0 152 162q106 162 106 219q0 35 -4 48q-10 18 -49 18q-41 0 -152 -184q-102 -174 -102 -205z" />
<glyph unicode="&#x201e;" horiz-adv-x="966" d="M164 -117q0 -57 49 -57q47 0 152 160q106 156 106 215q0 35 -4 47q-10 18 -49 18q-41 0 -152 -184q-102 -168 -102 -199zM414 -117q0 -57 49 -57q47 0 151 160q107 156 107 215q0 35 -4 47q-10 18 -49 18q-41 0 -152 -184q-102 -168 -102 -199z" />
<glyph unicode="&#x2022;" horiz-adv-x="860" d="M414 532q0 -53 28.5 -89.5t81.5 -36.5q74 0 102.5 37.5t28.5 101.5q0 51 -31.5 85t-82.5 34q-57 0 -92 -37t-35 -95z" />
<glyph unicode="&#x2026;" horiz-adv-x="1638" d="M303 152q0 -27 33 -80q33 -55 57 -56q31 0 68 47q39 47 39 84q0 31 -58 62q-23 10 -57 24q-12 0 -26.5 -8t-27 -20t-20.5 -26.5t-8 -26.5zM770 143q0 -27 33 -80q33 -55 57 -55q31 0 68 47q39 47 39 84q0 31 -58 62q-23 10 -57 24q-12 0 -26.5 -8t-27 -20.5t-20.5 -26.5 t-8 -27zM1237 135q0 -27 33 -80q33 -55 57 -55q31 0 68 47q39 47 39 84q0 31 -58 62q-23 10 -57 24q-12 0 -26.5 -8t-27 -20.5t-20.5 -27t-8 -26.5z" />
<glyph unicode="&#x202f;" horiz-adv-x="396" />
<glyph unicode="&#x2039;" horiz-adv-x="917" d="M205 389q0 -70 84 -123q25 -16 65.5 -38.5t100.5 -55.5q29 -18 57.5 -37.5t56.5 -42.5q92 -68 119 -67q37 0 61.5 9t24.5 40q0 33 -59 80q-41 27 -76 51l-270 176q27 14 65.5 36.5t91.5 53.5q53 33 87 54.5t51 31.5q188 121 188 164q0 49 -66 49q-39 0 -157 -82 q-53 -37 -83 -57.5t-38 -24.5q-49 -27 -98.5 -53.5t-96.5 -52.5q-108 -66 -108 -111z" />
<glyph unicode="&#x203a;" horiz-adv-x="843" d="M156 66q0 -49 69 -50q12 0 66 47q92 86 159.5 144.5t108.5 91.5q47 39 98.5 77t104.5 79q74 57 74 118q0 29 -52 72q-10 10 -33.5 26.5t-62.5 41.5q-29 23 -57.5 44t-57.5 44q-70 51 -106 51q-59 0 -82 -66q-6 -23 55 -69q84 -57 136.5 -96t87.5 -72l-230 -197 q-72 -59 -115 -96t-59 -51q-92 -84 -102 -119q-2 -4 -2 -20z" />
<glyph unicode="&#x205f;" horiz-adv-x="495" />
<glyph unicode="&#x25fc;" horiz-adv-x="798" d="M0 0v799h799v-799h-799z" />
</font>
</defs>
</svg>
